<svg xmlns="http://www.w3.org/2000/svg" viewBox="0 0 500 500"><g id="freepik--Floor--inject-5"><path id="freepik--floor--inject-5" d="M87.77,427C178,480.2,324.24,480.2,414.45,427s90.21-139.55,0-192.78-236.47-53.24-326.68,0S-2.44,373.72,87.77,427Z" style="fill:#f5f5f5"></path></g><g id="freepik--Shadows--inject-5"><ellipse id="freepik--Shadow--inject-5" cx="403.55" cy="360.55" rx="37.5" ry="21.65" style="fill:#e0e0e0"></ellipse><ellipse id="freepik--shadow--inject-5" cx="291.49" cy="404.48" rx="46.01" ry="26.56" style="fill:#e0e0e0"></ellipse></g><g id="freepik--Plants--inject-5"><g id="freepik--plants--inject-5"><path d="M414.43,337.46s1.14-10.06,6.14-17.87,11.89-12.69,18.31-13.19,11.6,5.39,4.73,9.45S424.54,324,418.93,339.2Z" style="fill:#F9D150"></path><path d="M414.43,337.46s1.14-10.06,6.14-17.87,11.89-12.69,18.31-13.19,11.6,5.39,4.73,9.45S424.54,324,418.93,339.2Z" style="opacity:0.1"></path><path d="M416.31,334.85l-.07,0a.34.34,0,0,1-.19-.45c6.77-16.68,19.66-23.64,25.54-25a.34.34,0,0,1,.41.25.36.36,0,0,1-.26.42c-5.75,1.32-18.39,8.16-25.05,24.58A.36.36,0,0,1,416.31,334.85Z" style="fill:#fff"></path><path d="M450.59,335.05c-.59,1.3-2,2-3.35,2.52s-2.77,1.11-3.49,2.35c-1.45,2.5.93,6-.62,8.46a4.49,4.49,0,0,1-3.06,1.77,27.36,27.36,0,0,1-3,.27,11.33,11.33,0,0,1-1.43-.11,6.48,6.48,0,0,0-4.14.44c-2,1.12-2.6,3.63-3.81,5.57a9.45,9.45,0,0,1-6.69,4.2,6.64,6.64,0,0,1-3.47-.23l-.19-.12a0,0,0,0,1,0,0,3.5,3.5,0,0,1-.35-.42.09.09,0,0,1,0-.06c-.35-1.29.22-2.64.25-4v-.25c-.06-1.55-.1-3.1-.14-4.66q-.1-4.29-.09-8.58c0-1.86-.2-3.9.59-5.65.87-1.92,3-2,3.85-3.85.33-.76.5-1.56.82-2.32a6.65,6.65,0,0,1,5.67-4c3.78-.19,7.17,2.87,10.95,2.59,1-.08,1.93-.38,2.89-.55,3.06-.58,6.6.3,8.32,2.89A4,4,0,0,1,450.59,335.05Z" style="fill:#F9D150"></path><path d="M416.62,353.72h0a.31.31,0,0,1-.23-.39c5.22-19.6,25.87-22.43,30.7-22.08a.33.33,0,0,1,.3.34.32.32,0,0,1-.35.3c-4.72-.34-24.92,2.43-30,21.61A.32.32,0,0,1,416.62,353.72Z" style="fill:#fff"></path><path d="M439.56,343.79a.32.32,0,0,1-.17-.09,17.19,17.19,0,0,0-14.05-4,.32.32,0,0,1-.37-.27.33.33,0,0,1,.28-.37,17.79,17.79,0,0,1,14.6,4.15.32.32,0,0,1,0,.45A.32.32,0,0,1,439.56,343.79Z" style="fill:#fff"></path></g><g id="freepik--plants--inject-5"><path d="M72.67,303.45A27.39,27.39,0,0,1,60,309.78c-8.09,1.78-11.93-1.91-11.93-1.91s2.76-7.86,7.27-10.28a45.6,45.6,0,0,0-13.83,6.66s-5,.37-7.43-7.12c0,0,2.69-4.76,12.46-7.83,0,0-6.13-1.16-14.69,1.58-.64.3-4-9.38-5.11-13.87s.71-4.56,4.2-5.71,15.5-2.47,17.84-.66,3.85,8.41,3.85,8.41,1.9-3.9,1.19-7.23a12.65,12.65,0,0,1,7.54-.27c4.06,1.15,3.93,3.1,4.1,6a30.84,30.84,0,0,1-.68,8.69s2.61-2.54,2.18-11.31a10.19,10.19,0,0,1,5.56,5.75C74.54,286.29,75.55,295.67,72.67,303.45Z" style="fill:#455a64"></path><path d="M72.69,303.91a.46.46,0,0,1-.43-.23c-7.41-13.31-32.87-27.76-41.75-28.95a.45.45,0,0,1-.39-.51.46.46,0,0,1,.51-.4c9,1.2,34.91,15.89,42.44,29.41a.46.46,0,0,1-.18.62A.36.36,0,0,1,72.69,303.91Z" style="fill:#fff"></path></g></g><g id="freepik--Beer--inject-5"><path d="M58.35,156.37v68.69a7.17,7.17,0,0,0,2.8,4.67l22.7,13.08v10.08L52.4,234.78a7.24,7.24,0,0,1-2.79-4.67V151.33Z" style="fill:#e6e6e6"></path><path d="M38.34,131.81l8.74-5c4.18-2.41,9.28-2.22,14,.51L83.85,140.4V161l-25.5-14.72v10.08l-8.74-5v78.78a7.24,7.24,0,0,0,2.79,4.67l31.45,18.11V263.4L52.34,245.25a24.46,24.46,0,0,1-11.83-20.19V139.15a15.72,15.72,0,0,1,1.53-7Z" style="fill:#f5f5f5"></path><path d="M38.34,131.81a12.39,12.39,0,0,1,4.89-1.61,15,15,0,0,1,9.13,2.11l31.49,18.18V171.1l-25.5-14.73-8.74-5v78.78a7.24,7.24,0,0,0,2.79,4.67l31.45,18.11v20.59L43.59,250.29a24.47,24.47,0,0,1-11.83-20.18v-85.9C31.76,138.73,34.16,134.22,38.34,131.81Z" style="fill:#f0f0f0"></path><path d="M37.75,195.93A1.94,1.94,0,0,0,39.69,194V145.28a5.09,5.09,0,0,1,7.65-4.4,1.94,1.94,0,1,0,2-3.34,9,9,0,0,0-13.49,7.74V194A1.94,1.94,0,0,0,37.75,195.93Z" style="fill:#fafafa"></path><circle cx="53.49" cy="142.23" r="1.98" style="fill:#fafafa"></circle><path d="M243.77,96.68V300.2h0c0,12.61-8.33,25.22-25,34.84-33.32,19.24-87.35,19.24-120.68,0-16.66-9.62-25-22.23-25-34.84h0V96.68Z" style="fill:#e0e0e0"></path><path d="M82.14,118.77a61.82,61.82,0,0,0,16,12.75c33.33,19.24,87.36,19.24,120.69,0a61.82,61.82,0,0,0,15.95-12.75c16-18.46,10.74-41.53-15.95-56.92-33.33-19.25-87.36-19.25-120.69,0C71.4,77.24,66.09,100.31,82.14,118.77Z" style="fill:#ebebeb"></path><path d="M82.15,123.62c.17-9.68,7.41-19.14,20.46-26.68,14.77-8.52,34.59-13.22,55.82-13.22s41.06,4.7,55.82,13.22c13.06,7.54,20.3,17,20.46,26.68h0V277.68h0c0,8.5-7.27,16.82-20.48,23.44-14.76,7.39-34.59,11.47-55.82,11.47h0c-21.23,0-41.05-4.08-55.82-11.47-13.2-6.62-20.47-14.94-20.47-23.44V123.62Z" style="fill:#F9D150"></path><path d="M82.15,123.62c.17-9.68,7.41-19.14,20.46-26.68,14.77-8.52,34.59-13.22,55.82-13.22s41.06,4.7,55.82,13.22c13.06,7.54,20.3,17,20.46,26.68h0V277.68h0c0,8.5-7.27,16.82-20.48,23.44-14.76,7.39-34.59,11.47-55.82,11.47h0c-21.23,0-41.05-4.08-55.82-11.47-13.2-6.62-20.47-14.94-20.47-23.44V123.62Z" style="opacity:0.1"></path><path d="M82.14,290.12v12.41c0,8.5,7.27,16.82,20.47,23.43a103,103,0,0,0,25.49,8.51,151.78,151.78,0,0,0,30.33,3c21.23,0,41.06-4.07,55.83-11.47,6.6-3.31,11.71-7,15.19-11s5.28-8.17,5.28-12.42V290.12c0,4.25-1.82,5.88-5.28,9.84s-8.59,7.7-15.19,11c-14.77,7.4-34.6,11.47-55.83,11.47a151.78,151.78,0,0,1-30.33-3A103.4,103.4,0,0,1,102.61,311C89.41,304.36,82.14,298.61,82.14,290.12Z" style="fill:#ebebeb"></path><path d="M82.14,96.68a23.32,23.32,0,0,0,4.78,13.64c3.46-4.83,8.75-9.37,15.69-13.38,14.77-8.52,34.59-13.22,55.82-13.22s41.06,4.7,55.83,13.22c6.93,4,12.23,8.55,15.69,13.38a23.32,23.32,0,0,0,4.78-13.64c0-9.79-7.27-19.39-20.47-27-14.77-8.52-34.6-13.21-55.83-13.21s-41.05,4.69-55.82,13.21C89.41,77.29,82.14,86.89,82.14,96.68Z" style="fill:#e0e0e0"></path><path d="M82.15,112.72a21.41,21.41,0,0,1,1.71-7.84,5.79,5.79,0,0,1,2.42-8A9.18,9.18,0,0,1,99.54,84.53a7.17,7.17,0,0,1-.08-.81,5.85,5.85,0,0,1,9.5-4.59,11.75,11.75,0,0,1,20.59-9.89A9.17,9.17,0,0,1,146,67.48a14.41,14.41,0,0,1,24.9,0,9.17,9.17,0,0,1,16.43,1.76,11.75,11.75,0,0,1,20.58,9.89,5.85,5.85,0,0,1,9.5,4.59,5.42,5.42,0,0,1-.08.81,9.19,9.19,0,0,1,13.26,12.34,5.85,5.85,0,0,1,3.18,5.19,5.77,5.77,0,0,1-.75,2.8,21.32,21.32,0,0,1,1.72,7.86h0v6a61.82,61.82,0,0,1-15.95,12.75c-33.33,19.24-87.36,19.24-120.69,0a61.82,61.82,0,0,1-16-12.75v-6Z" style="fill:#fafafa"></path><path d="M82.14,118.77v12c0,8.48,7.27,16.81,20.47,23.43a103.4,103.4,0,0,0,25.49,8.51,151.78,151.78,0,0,0,30.33,3c21.23,0,41.06-4.07,55.83-11.47,6.6-3.31,11.71-7,15.19-11s5.28-8.17,5.28-12.42v-12a61.82,61.82,0,0,1-15.95,12.75c-33.33,19.24-87.36,19.24-120.69,0A61.82,61.82,0,0,1,82.14,118.77Z" style="fill:#f5f5f5"></path><path d="M82.14,96.68v22.09a61.82,61.82,0,0,0,16,12.75c33.33,19.24,87.36,19.24,120.69,0a61.82,61.82,0,0,0,15.95-12.75V96.68c0,9.8-7.27,19.39-20.47,27-14.77,8.53-34.6,13.22-55.83,13.22s-41.05-4.69-55.82-13.22C89.41,116.07,82.14,106.48,82.14,96.68Z" style="fill:#ebebeb"></path><path d="M140.56,184.1V289.85a7.17,7.17,0,0,0,6.43,7.06c3.75.27,7.57.4,11.44.4s7.68-.13,11.43-.4a7.17,7.17,0,0,0,6.43-7.06V184.1a5.81,5.81,0,0,0-6.43-5.86c-3.75.27-7.57.41-11.43.41s-7.69-.14-11.44-.41A5.81,5.81,0,0,0,140.56,184.1Z" style="opacity:0.1"></path><path d="M97.79,171V276.74c0,3.56,2.49,7.94,5.7,9.5a96.76,96.76,0,0,0,17.18,6.37c3.44.93,6.28-1.39,6.28-5V181.89a8.7,8.7,0,0,0-6.29-7.95,96,96,0,0,1-17.17-6.38C100.29,166,97.79,167.42,97.79,171Z" style="opacity:0.1"></path><path d="M219.06,171V276.74c0,3.56-2.49,7.94-5.69,9.5a97.05,97.05,0,0,1-17.18,6.37c-3.45.93-6.28-1.39-6.28-5V181.89a8.7,8.7,0,0,1,6.28-7.95,95.39,95.39,0,0,0,17.17-6.38C216.57,166,219.06,167.42,219.06,171Z" style="opacity:0.1"></path><path d="M93.19,139.46s-9.92-6-15-15.51V298.71s5.14,10.61,15,15.07Z" style="fill:#fff;opacity:0.30000000000000004"></path><path d="M168.55,112.66A7.58,7.58,0,1,0,157.7,122a7.6,7.6,0,0,1,10.85-9.32Z" style="fill:#f0f0f0"></path><path d="M177.29,114.45a4.94,4.94,0,1,0-9.31-.25,4.94,4.94,0,0,1,8.75-.93A5.09,5.09,0,0,1,177.29,114.45Z" style="fill:#f0f0f0"></path><path d="M200.2,95.42a7.58,7.58,0,1,0-14-2.66,7.59,7.59,0,0,1,14,2.66Z" style="fill:#f0f0f0"></path><path d="M188.08,88.87a4.94,4.94,0,1,0-9.27-.84,4.93,4.93,0,0,1,8.78-.37A5,5,0,0,1,188.08,88.87Z" style="fill:#f0f0f0"></path><path d="M132.4,90.38a7.58,7.58,0,1,0-13.76,3.89,7.47,7.47,0,0,1,1.72-4.34,7.6,7.6,0,0,1,12,.45Z" style="fill:#f0f0f0"></path><path d="M140.6,94a4.93,4.93,0,1,0-9.06,2.1,4.84,4.84,0,0,1,1.25-2.77,4.93,4.93,0,0,1,7.81.67Z" style="fill:#f0f0f0"></path><path d="M119.2,102.27a4.94,4.94,0,1,0-6.67-6.5,4.87,4.87,0,0,1,3-.44,4.93,4.93,0,0,1,4,5.69A4.77,4.77,0,0,1,119.2,102.27Z" style="fill:#f0f0f0"></path></g><g id="freepik--Confetti--inject-5"><path d="M283.66,63.38C278.8,62.9,272.23,71,277,74.91c2.64,2.16,8.4,1.23,8.34-2.82a.53.53,0,0,0-.43-.45c-3.82-.88-7.6.76-7,5.22a8.59,8.59,0,0,0,8,7c.23,0,.15-.4,0-.44-3.32-.7-6.46-2.77-7.11-6.33a4.57,4.57,0,0,1,.71-3.68,3.63,3.63,0,0,1,1.74-1.16c.57-.18,2.62-.5,3.07,0,.9.94-1.54,2.5-2.26,2.75a5.15,5.15,0,0,1-4.4-.42c-2-1.4-1.52-4.07-.54-6,1.32-2.55,3.63-4.62,6.6-4.72.27,0,.13-.51-.08-.53Z" style="fill:#F9D150"></path><path d="M325.7,110.19c1.53-3.44,1.37-7,5.82-8.14,2-.5,6.58-1,8.05.79a2.1,2.1,0,0,1-.38,2.67c-1.16,1-2-.2-2.33-1.3a5,5,0,0,1,2.22-5.39A8.94,8.94,0,0,1,351,100.73c.16.21.34,0,.26-.23-3.41-7.85-19.79-2.39-14.53,5.14,1.59,2.28,4.4.27,3.87-2.14-.59-2.67-5.15-2.54-7.15-2.41a8.3,8.3,0,0,0-5.54,2.13c-1.78,1.76-2,4.52-2.4,6.87,0,.11.1.26.17.1Z" style="fill:#F9D150"></path><path d="M406.71,45.13c3.19-.93,7.58-.67,10.26,1.49,2.06,1.65,3.24,5.26.19,6.5-1.19.48-5.13.49-5.6-1.15-.33-1.13.88-1.8,1.86-1.95,2.86-.44,5.54,2.57,5.48,5.27-.1,4-4.81,5.38-8.14,5.42-.22,0-.16.41,0,.43,5.66.54,12-4.71,6.95-10-1.36-1.42-3.48-2.42-5.43-1.64-1.11.44-2,1.44-1.43,2.64.88,1.92,4.45,2.25,6.17,1.76a3.45,3.45,0,0,0,2.39-4.45c-1.39-5.12-8.55-6.18-12.8-4.64-.12,0-.08.34.07.29Z" style="fill:#F9D150"></path><path d="M443.79,203.06c3.19-.93,7.58-.67,10.26,1.48,2.06,1.66,3.24,5.27.19,6.51-1.2.48-5.14.48-5.61-1.15-.33-1.13.89-1.8,1.86-2,2.87-.45,5.54,2.57,5.48,5.27-.1,4-4.81,5.38-8.14,5.41-.22,0-.16.42,0,.43,5.67.55,12-4.7,7-10-1.36-1.42-3.48-2.43-5.44-1.65-1.1.44-2,1.44-1.42,2.65.88,1.92,4.44,2.25,6.17,1.76a3.46,3.46,0,0,0,2.39-4.45c-1.4-5.12-8.56-6.19-12.81-4.65-.12.05-.07.34.08.3Z" style="fill:#F9D150"></path><path d="M436.27,95.19c-3.81,1.13-7.35,7.82-3.81,10.88,3,2.59,9.08,2,8.08-2.94a.35.35,0,0,0-.21-.25c-4-.95-5.31,3.71-4.48,6.79,1.31,4.78,6.13,4.72,9.61,2.22.12-.08.06-.41-.1-.33-2.85,1.42-6.84,2.69-8.58-1-.93-2-1-5.16.83-6.66a2.48,2.48,0,0,1,1.72-.68c1.33.16,1.1,1.6.35,2.51-1.19,1.46-3.6,1.3-5.2.74-5.48-1.94-1.71-9,1.86-11,.11-.06.08-.34-.07-.29Z" style="fill:#F9D150"></path><path d="M460.1,129.12c6.48.52,5.32,12.82.08,14.48a2.52,2.52,0,0,1-2-.1A2.88,2.88,0,0,1,457,141c.62-2.12,4.11.55,4.57,1.38a6,6,0,0,1-.5,7.07c-2.67,2.93-7.76,3-11.09,1.36-.18-.09-.21.23-.09.31,3.59,2.3,9.6,2,12.26-1.67,2.13-2.92.66-10.64-4-10-4.33.64-1.34,5.57,1.94,4.92s4.46-5,4.78-7.7c.39-3.39-.62-8-4.82-7.9-.14,0-.12.3,0,.31Z" style="fill:#F9D150"></path><path d="M278.43,144.49c-4.49-.57-14.15,3.22-11.64,9.33,1.34,3.27,7.33,5.37,9.3,1.62a.44.44,0,0,0-.22-.56c-9.36-5.29-19.22,10-9.28,15.65.31.18.3-.35.11-.49a7.81,7.81,0,0,1-1.94-11,10.28,10.28,0,0,1,4.16-3.77c1.29-.6,4.5-1.45,5.69-.2.55.58.53-.15.25.53-.17.41-.74.65-1.14.8a4.72,4.72,0,0,1-3.08-.1c-2.1-.73-3.72-2.64-3.17-4.95,1.1-4.6,7-6.28,11.07-6.31.29,0,.11-.53-.11-.56Z" style="fill:#F9D150"></path><path d="M355.77,59s-.28,5,3.46,7.82l3.92-1.19s-2.62-1.25-3.92-6.63Z" style="fill:#455a64"></path><path d="M288,163s-.28,5,3.45,7.83l3.92-1.19s-2.62-1.25-3.92-6.64Z" style="fill:#455a64"></path><path d="M344.13,127.06s-.28,5,3.46,7.82l3.92-1.19s-2.62-1.25-3.92-6.63Z" style="fill:#37474f"></path><path d="M448.08,69.07s-2.28,4.49-6.91,5l-2.8-3s2.9.22,6.72-3.78Z" style="fill:#455a64"></path><path d="M466.55,177.62s-2.28,4.49-6.91,5l-2.8-3s2.9.23,6.72-3.78Z" style="fill:#455a64"></path><path d="M365,161.27s-2.28,4.5-6.92,5l-2.79-3s2.89.23,6.71-3.78Z" style="fill:#F9D150"></path><path d="M262.07,40.74s-2.28,4.49-6.91,5l-2.8-3s2.9.22,6.72-3.78Z" style="fill:#455a64"></path><path d="M410.7,83.54s-5,.62-8.05-2.92l.92-4s1.43,2.53,6.89,3.46Z" style="fill:#F9D150"></path><path d="M336,68.73s-5,.63-8.05-2.91l.92-4s1.43,2.53,6.89,3.45Z" style="fill:#F9D150"></path><path d="M326.49,125.75s-5,.62-8.05-2.92l.92-4s1.43,2.52,6.89,3.45Z" style="fill:#F9D150"></path><path d="M401.71,139.09s-5,.62-8-2.91l.91-4s1.44,2.52,6.89,3.45Z" style="fill:#F9D150"></path><path d="M467.65,113.56s-5,.62-8-2.92l.92-4s1.43,2.53,6.89,3.46Z" style="fill:#F9D150"></path><path d="M418.61,113.12s-2.28,4.49-6.92,5l-2.79-3s3.42.52,7.24-3.48Z" style="fill:#455a64"></path><path d="M423.64,119.75s-.89,5-5.17,6.81l-3.54-2.06a13,13,0,0,0,5.94-5.41Z" style="fill:#37474f"></path><path d="M266.55,97.55s-2.28,4.49-6.92,5l-2.79-3s3.42.52,7.24-3.48Z" style="fill:#455a64"></path><path d="M271.58,104.18s-.89,5-5.17,6.82l-3.54-2.07a12.9,12.9,0,0,0,5.93-5.41Z" style="fill:#37474f"></path></g><g id="freepik--character-2--inject-5"><path d="M385.72,198.13c-2.28,3.6-9.16,14.84-11.92,20.5l-.57-.26s-18.48-5.55-18.88-7.1c-.58-2.22-1.07-3.46-1.39-4.94-.21-.91-.11-2.87-1.42-1.77-1.15,1-1.26,3.11-1.16,3.93a16.62,16.62,0,0,1-2.89-2.32c-1.09-1-2.06,8.91-.9,9.7a33.12,33.12,0,0,0,5.47,2.94c2.58,1.11,22.86,12.9,25.58,11.24,2.67-1.09,11.41-15.76,16.84-25.37L398.8,193C394.23,192.94,389.23,192.59,385.72,198.13Z" style="fill:#b16668"></path><path d="M347.76,208.48v6.75a.73.73,0,0,1-.27.46L345.26,217v1l3.09-1.78a.76.76,0,0,0,.27-.46V208Z" style="fill:#e6e6e6"></path><path d="M349.73,206.06l-.86-.49a1.35,1.35,0,0,0-1.38.05l-2.23,1.29v2l2.5-1.44v1l.86-.5v7.75a.76.76,0,0,1-.27.46L345.26,218v1l3.09-1.79a2.38,2.38,0,0,0,1.17-2v-8.44a1.67,1.67,0,0,0-.15-.69Z" style="fill:#f5f5f5"></path><path d="M349.73,206.06a1.17,1.17,0,0,0-.48-.15,1.43,1.43,0,0,0-.9.2l-3.09,1.79v2l2.5-1.45.86-.5v7.75a.76.76,0,0,1-.27.46L345.26,218v2l3.95-2.28a2.4,2.4,0,0,0,1.17-2v-8.45A1.36,1.36,0,0,0,349.73,206.06Z" style="fill:#f0f0f0"></path><path d="M349.79,212.37a.19.19,0,0,1-.19-.19v-4.79a.52.52,0,0,0-.25-.44.49.49,0,0,0-.51,0,.2.2,0,0,1-.26-.07.19.19,0,0,1,.07-.26.89.89,0,0,1,.89,0,.89.89,0,0,1,.44.77v4.79A.2.2,0,0,1,349.79,212.37Z" style="fill:#fafafa"></path><path d="M348.43,207.09a.18.18,0,0,1-.19.19.19.19,0,0,1-.2-.19.2.2,0,0,1,.2-.2A.19.19,0,0,1,348.43,207.09Z" style="fill:#fafafa"></path><path d="M350.38,209.89a5.22,5.22,0,0,1,1.68,2.7c.6,1.94.76,4.53-.84,5.46S350.38,209.89,350.38,209.89Z" style="fill:#9a4a4d"></path><path d="M347.68,208.48a6.51,6.51,0,0,1,2.62,1.41c1.74,2,2.2,8.49,0,8.65-.92.07-2.71.06-4.07-2.49v-6.66Z" style="fill:#b16668"></path><path d="M329.54,202.61v20h0c0,1.24.81,2.48,2.45,3.42a13.13,13.13,0,0,0,11.87,0c1.63-.94,2.45-2.18,2.45-3.42h0v-20Z" style="fill:#e0e0e0"></path><path d="M345.42,204.78a6.17,6.17,0,0,1-1.56,1.26A13.13,13.13,0,0,1,332,206a6.42,6.42,0,0,1-1.57-1.26c-1.57-1.81-1.05-4.08,1.57-5.59a13.07,13.07,0,0,1,11.87,0C346.48,200.7,347,203,345.42,204.78Z" style="fill:#ebebeb"></path><path d="M345.42,205.26a3.36,3.36,0,0,0-2-2.62,12.22,12.22,0,0,0-11,0,3.34,3.34,0,0,0-2,2.62h0V220.4h0c0,.84.72,1.66,2,2.31a12.65,12.65,0,0,0,5.48,1.12h0a12.66,12.66,0,0,0,5.49-1.12c1.3-.65,2-1.47,2-2.31V205.26Z" style="fill:#F9D150"></path><path d="M345.42,221.63v1.22c0,.83-.71,1.65-2,2.3a10.63,10.63,0,0,1-2.5.84,15,15,0,0,1-3,.29,12.5,12.5,0,0,1-5.48-1.13,5.09,5.09,0,0,1-1.5-1.08,1.88,1.88,0,0,1-.52-1.22v-1.22c0,.41.18.57.52,1a4.92,4.92,0,0,0,1.5,1.08,12.5,12.5,0,0,0,5.48,1.13,15,15,0,0,0,3-.29,9.79,9.79,0,0,0,2.5-.84C344.71,223,345.42,222.46,345.42,221.63Z" style="fill:#ebebeb"></path><path d="M345.42,202.61A2.28,2.28,0,0,1,345,204a4.87,4.87,0,0,0-1.54-1.31,12.22,12.22,0,0,0-11,0,4.92,4.92,0,0,0-1.55,1.31,2.35,2.35,0,0,1-.47-1.34c0-1,.72-1.9,2-2.65a12.22,12.22,0,0,1,11,0C344.71,200.71,345.42,201.65,345.42,202.61Z" style="fill:#e0e0e0"></path><path d="M345.42,204.19a1.91,1.91,0,0,0-.17-.77.57.57,0,0,0,.08-.28.59.59,0,0,0-.31-.51.92.92,0,0,0,.15-.5.9.9,0,0,0-.91-.9.92.92,0,0,0-.55.19.25.25,0,0,0,0-.08.58.58,0,0,0-.58-.58.56.56,0,0,0-.35.13,2,2,0,0,0,0-.25,1.15,1.15,0,0,0-1.15-1.15,1.17,1.17,0,0,0-.9.42.89.89,0,0,0-.85-.6.91.91,0,0,0-.76.43,1.42,1.42,0,0,0-2.45,0,.91.91,0,0,0-.76-.43.89.89,0,0,0-.85.6,1.17,1.17,0,0,0-.9-.42,1.15,1.15,0,0,0-1.15,1.15,2,2,0,0,0,0,.25.56.56,0,0,0-.35-.13.58.58,0,0,0-.58.58.25.25,0,0,0,0,.08.92.92,0,0,0-.55-.19.9.9,0,0,0-.91.9.92.92,0,0,0,.15.5.59.59,0,0,0-.31.51.68.68,0,0,0,.07.28,2.08,2.08,0,0,0-.16.77h0v.59A6.42,6.42,0,0,0,332,206a13.13,13.13,0,0,0,11.87,0,6.17,6.17,0,0,0,1.56-1.26v-.59Z" style="fill:#fafafa"></path><path d="M345.42,204.78V206c0,.84-.71,1.66-2,2.31a10.19,10.19,0,0,1-2.5.83,15,15,0,0,1-3,.29,12.65,12.65,0,0,1-5.48-1.12,5.1,5.1,0,0,1-1.5-1.09,1.86,1.86,0,0,1-.52-1.22v-1.18A6.42,6.42,0,0,0,332,206a13.13,13.13,0,0,0,11.87,0A6.17,6.17,0,0,0,345.42,204.78Z" style="fill:#f5f5f5"></path><path d="M345.42,202.61v2.17a6.17,6.17,0,0,1-1.56,1.26A13.13,13.13,0,0,1,332,206a6.42,6.42,0,0,1-1.57-1.26v-2.17a3.36,3.36,0,0,0,2,2.66,12.22,12.22,0,0,0,11,0A3.35,3.35,0,0,0,345.42,202.61Z" style="fill:#ebebeb"></path><path d="M339.68,211.2v10.4a.7.7,0,0,1-.63.69c-.37,0-.75,0-1.13,0s-.75,0-1.12,0a.7.7,0,0,1-.63-.69V211.2a.56.56,0,0,1,.63-.57c.37,0,.75,0,1.12,0s.76,0,1.13,0A.56.56,0,0,1,339.68,211.2Z" style="opacity:0.05"></path><path d="M343.89,209.91v10.4a1.13,1.13,0,0,1-.56.93,9.77,9.77,0,0,1-1.69.63.48.48,0,0,1-.62-.49V211a.85.85,0,0,1,.62-.78,9.46,9.46,0,0,0,1.68-.63C343.64,209.42,343.89,209.56,343.89,209.91Z" style="opacity:0.05"></path><path d="M332,209.91v10.4a1.13,1.13,0,0,0,.56.93,9.77,9.77,0,0,0,1.69.63.48.48,0,0,0,.62-.49V211a.85.85,0,0,0-.62-.78,9.88,9.88,0,0,1-1.69-.63C332.21,209.42,332,209.56,332,209.91Z" style="opacity:0.05"></path><path d="M344.34,206.82a4.67,4.67,0,0,0,1.47-1.53v17.18a3.44,3.44,0,0,1-1.47,1.48Z" style="fill:#fff;opacity:0.30000000000000004"></path><path d="M336.93,204.18a.75.75,0,0,1,1.42.08.77.77,0,0,1-.35.84.79.79,0,0,0,0-.46.74.74,0,0,0-.91-.53A.67.67,0,0,0,336.93,204.18Z" style="fill:#f0f0f0"></path><path d="M336.07,204.36a.49.49,0,0,1,.05-.44.47.47,0,0,1,.67-.14.48.48,0,0,1,.2.55.53.53,0,0,0-.19-.23.48.48,0,0,0-.67.14A.34.34,0,0,0,336.07,204.36Z" style="fill:#f0f0f0"></path><path d="M333.82,202.49a.75.75,0,0,1,.95-1.06.75.75,0,0,1,.43.8.68.68,0,0,0-.34-.31.75.75,0,0,0-1,.38A1.05,1.05,0,0,0,333.82,202.49Z" style="fill:#f0f0f0"></path><path d="M335,201.84a.48.48,0,0,1,.68-.62.48.48,0,0,1,.23.54.47.47,0,0,0-.2-.22.49.49,0,0,0-.66.18A.61.61,0,0,0,335,201.84Z" style="fill:#f0f0f0"></path><path d="M340.48,202a.76.76,0,0,1,.27-.62.75.75,0,0,1,1.05.1.74.74,0,0,1,0,.9.75.75,0,0,0-1.22-.52A.93.93,0,0,0,340.48,202Z" style="fill:#f0f0f0"></path><path d="M339.68,202.34a.46.46,0,0,1,.15-.41.49.49,0,0,1,.74.62.47.47,0,0,0-.12-.27.49.49,0,0,0-.69,0Z" style="fill:#f0f0f0"></path><path d="M341.78,203.16a.49.49,0,0,1-.26-.35.47.47,0,0,1,.4-.56.48.48,0,0,1,.52.27.5.5,0,0,0-.3,0,.49.49,0,0,0-.4.56A.56.56,0,0,0,341.78,203.16Z" style="fill:#f0f0f0"></path><path d="M414.86,160.07l3.61.76a2.39,2.39,0,0,0-3.11-2.77l1.82-2a2.4,2.4,0,0,0-3.91,2.53A16.45,16.45,0,0,0,402.9,155h-1.24a16.57,16.57,0,0,0-16.57,16.58v18.39h24a10.35,10.35,0,0,0,10.35-10.35v-8A16.49,16.49,0,0,0,414.86,160.07Z" style="fill:#F9D150"></path><path d="M414.86,160.07l3.61.76a2.39,2.39,0,0,0-3.11-2.77l1.82-2a2.4,2.4,0,0,0-3.91,2.53A16.45,16.45,0,0,0,402.9,155h-1.24a16.57,16.57,0,0,0-16.57,16.58v18.39h24a10.35,10.35,0,0,0,10.35-10.35v-8A16.49,16.49,0,0,0,414.86,160.07Z" style="opacity:0.6"></path><path d="M394.21,345.25a4.07,4.07,0,0,1-.92,2.28,30,30,0,0,1-4.59,4.57c-2.38,1.95-5.85,4.17-8.35,5.82-1.39.91-1.65,2.54,0,3.36a13.53,13.53,0,0,0,9.95,0c2.37-.89,6.28-6,8.24-6.54,2.24-.67,3.5-1,4.35-1.86,1.27-1.32,1.69-2.37,1-4.2-.75-2-1.86-5.07-2.52-4.83l.11.62c-.69,1.45-5.06,2.65-7.13,1.94Z" style="fill:#263238"></path><path d="M401.42,343.81c.21-3.27.37-5.88.62-13.73s.62-14.21.6-19.89A53.72,53.72,0,0,0,400.51,297l3.11-34.26s.46,29.47,1.79,37c1.06,6,1.47,13.56,2.7,23.88,1.17,9.88,1.95,20.24,2.39,27.25.14,2.32.17,8.33.17,8.33h7.15v-4.83a39.44,39.44,0,0,1,.54-6.51c1.08-6.57,3.49-21.62,4-26.71.77-8.08-2.14-18.22-2.14-18.22s1.17-11.64,2.12-21.6c1-10.23,3.73-26.62.89-38.77l-37,1.81c-1.05,12-1.33,46.66-.2,53.21.87,5.05,6.7,38.65,8.15,47.05" style="fill:#b16668"></path><path d="M394.2,344.57c0,.26,0,.5,0,.71a3.86,3.86,0,0,1-.91,2.25,30.47,30.47,0,0,1-4.59,4.58c-1.16.94-2.58,2-4,2.93a1.15,1.15,0,0,0-.26.52c-.15,1.16,2.63,1.85,4.35,1.59a10.53,10.53,0,0,0,5.64-3.22c1.12-1.15,3.6-3.3,5.2-4.94a9.09,9.09,0,0,0,1.44-1.68,3.84,3.84,0,0,0,.53-2.6l-.05-.28c0-.21-.07-.42-.1-.62" style="fill:#b16668"></path><path d="M409.05,193.34s10.12,1.17,11.33,1.71c-7.26,8.44-1.41,19.86-1.41,19.86l-4,13.11a49.43,49.43,0,0,1,8.28,14.48c2.42,6.35,4,11.19,5.81,31.57-9.54,8.79-41.31,9-49.39-1.62,0,0,2.48-14.22,5.69-27.63,2.35-9.8,4.67-15.34,4.1-18.54-4.26-13.11-4.59-16.54-3.84-19.46,2.13-8.23,10.51-13.79,12.58-13.79Z" style="fill:#37474f"></path><path d="M436.37,185.37c-1.11,2.5-7.8,13.54-10.35,18s-4.94,8.2-7,11.51c-8.19-4-1.11-20.31-1.11-20.31s10.51-13.75,10.84-14.42a8.07,8.07,0,0,0,.72-2c.23-1.26,1.58-14.12,1-18.86a3.44,3.44,0,0,0-1.15-2.16c-1.68-1.52-2.24-2.86-3.4-4.6-.91-1.36-1.81-1.82-1.6-2.16a1.85,1.85,0,0,1,2.49-.43,12.93,12.93,0,0,1,2.43,1.92,17,17,0,0,0-1.93-5.2c-2.08-3.71-1.85-5.73,3.51-4.84,3.36.55,5.68,3.08,6.92,10.91a68.29,68.29,0,0,1,.33,8.52c.07,6.59-.16,14.35-.5,18.9A10.81,10.81,0,0,1,436.37,185.37Z" style="fill:#b16668"></path><path d="M410.66,355.61v-1a19.77,19.77,0,0,1-5.12,9c-2.25,2.06-5.33,4.44-6.12,6.73s3.64,3.34,6.56,3a11.78,11.78,0,0,0,7.35-3.84c1.86-2.13,1.82-3.59,2.69-4.76s2.86-2.48,3.33-3.84a8.46,8.46,0,0,0-.41-3.75c-.33-1.27-.69-2.66-1.12-2.54v.78a5.69,5.69,0,0,1-3.58,1.21C413.19,356.62,410.65,356.41,410.66,355.61Z" style="fill:#263238"></path><path d="M417.82,355.37a5.75,5.75,0,0,1-3.58,1.21c-1.05,0-3.3-.5-3.29-1.3l-.36-1.82c0,2.71-2.2,7.5-5,10.09l-1.72,1.53c-1.2,1.33-.86,2.5,2,2.75s5.3-1.46,7.44-4.09S417.82,355.37,417.82,355.37Z" style="fill:#b16668"></path><path d="M391.56,162.39c-1.81,1.07-4.06,5.64-3.84,15.22.19,8.11,2.82,10.12,4.14,10.7s3.87.22,6.35-.19V193s-3.43,4-3.21,6.21,4.94,2.76,8.14.58a25.79,25.79,0,0,0,5.91-6.44L409,182.15s1.46,1.41,3.93-.75c2-1.78,2.73-4.79,1.14-6.41a3.56,3.56,0,0,0-5.66,1.13s-1.38-3.82-7.08-5.69C396.17,168.75,393.36,166.81,391.56,162.39Z" style="fill:#b16668"></path><path d="M396.78,175.57a1,1,0,1,0,2,.1,1,1,0,0,0-1-1.11A1,1,0,0,0,396.78,175.57Z" style="fill:#263238"></path><path d="M396.51,182.45l-2.37.75a1.22,1.22,0,0,0,1.54.85A1.28,1.28,0,0,0,396.51,182.45Z" style="fill:#9a4a4d"></path><path d="M388.42,172.43l2.06-1.43a1.2,1.2,0,0,0-1.71-.35A1.32,1.32,0,0,0,388.42,172.43Z" style="fill:#263238"></path><path d="M399.75,173.19l-2.06-1.43a1.2,1.2,0,0,1,1.71-.35A1.31,1.31,0,0,1,399.75,173.19Z" style="fill:#263238"></path><path d="M388.89,174.83a1,1,0,0,0,1,1.11,1.05,1.05,0,0,0,1.07-1,1,1,0,1,0-2-.1Z" style="fill:#263238"></path><polygon points="393.71 174.25 393.54 180.39 390.31 179.39 393.71 174.25" style="fill:#9a4a4d"></polygon><path d="M398.21,188.12c2.61-.34,8-1.89,8.81-4a5.49,5.49,0,0,1-1.88,2.71c-1.6,1.38-6.93,2.92-6.93,2.92Z" style="fill:#9a4a4d"></path><polygon points="416.88 221.69 409.55 231.47 414.93 228.02 416.88 221.69" style="fill:#263238"></polygon></g><g id="freepik--character-1--inject-5"><g id="freepik--Character--inject-5"><path d="M336.87,243.48v6.75a.73.73,0,0,0,.27.46l2.24,1.28v1l-3.1-1.78a.76.76,0,0,1-.27-.46V243Z" style="fill:#e0e0e0"></path><path d="M334.9,241.06l.86-.49a1.35,1.35,0,0,1,1.38.05l2.24,1.29v2l-2.51-1.44v1L336,243v7.75a.76.76,0,0,0,.27.46l3.1,1.78v1l-3.1-1.79a2.4,2.4,0,0,1-1.16-2v-8.44a1.52,1.52,0,0,1,.15-.69Z" style="fill:#ebebeb"></path><path d="M334.9,241.06a1.22,1.22,0,0,1,.48-.15,1.41,1.41,0,0,1,.9.2l3.1,1.79v2l-2.51-1.45L336,243v7.75a.76.76,0,0,0,.27.46l3.1,1.78v2l-4-2.28a2.41,2.41,0,0,1-1.16-2v-8.45A1.35,1.35,0,0,1,334.9,241.06Z" style="fill:#e6e6e6"></path><path d="M334.85,247.37a.2.2,0,0,0,.19-.19v-4.79a.5.5,0,0,1,.25-.44.47.47,0,0,1,.5,0,.19.19,0,0,0,.19-.33.87.87,0,0,0-.88,0,.88.88,0,0,0-.45.77v4.79A.2.2,0,0,0,334.85,247.37Z" style="fill:#fafafa"></path><path d="M336.2,242.09a.18.18,0,0,0,.19.19.19.19,0,0,0,.2-.19.2.2,0,0,0-.2-.2A.19.19,0,0,0,336.2,242.09Z" style="fill:#fafafa"></path><path d="M339,239.22v20h0c0,1.24.82,2.48,2.45,3.42a13.07,13.07,0,0,0,11.87,0c1.63-.94,2.45-2.18,2.45-3.42h0v-20Z" style="fill:#e0e0e0"></path><path d="M354.89,241.39a6.15,6.15,0,0,1-1.56,1.25,13.13,13.13,0,0,1-11.87,0,6.15,6.15,0,0,1-1.56-1.25c-1.58-1.82-1.06-4.09,1.56-5.6a13.13,13.13,0,0,1,11.87,0C356,237.3,356.47,239.57,354.89,241.39Z" style="fill:#ebebeb"></path><path d="M354.89,241.86a3.34,3.34,0,0,0-2-2.62,12.22,12.22,0,0,0-11,0,3.34,3.34,0,0,0-2,2.62h0V257h0c0,.83.71,1.65,2,2.3a12.52,12.52,0,0,0,5.49,1.13h0a12.5,12.5,0,0,0,5.48-1.13c1.3-.65,2-1.47,2-2.3V241.86Z" style="fill:#F9D150"></path><path d="M354.89,258.23v1.22c0,.83-.71,1.65-2,2.3a9.79,9.79,0,0,1-2.5.84,15,15,0,0,1-3,.29,12.52,12.52,0,0,1-5.49-1.13,4.92,4.92,0,0,1-1.5-1.08,1.85,1.85,0,0,1-.51-1.22v-1.22c0,.42.17.58.51,1a5.09,5.09,0,0,0,1.5,1.08,12.52,12.52,0,0,0,5.49,1.13,15,15,0,0,0,3-.29,10.19,10.19,0,0,0,2.5-.84C354.18,259.63,354.89,259.06,354.89,258.23Z" style="fill:#ebebeb"></path><path d="M354.89,239.22a2.3,2.3,0,0,1-.47,1.34,4.76,4.76,0,0,0-1.54-1.32,12.22,12.22,0,0,0-11,0,4.92,4.92,0,0,0-1.55,1.32,2.36,2.36,0,0,1-.46-1.34c0-1,.71-1.91,2-2.66a12.22,12.22,0,0,1,11,0C354.18,237.31,354.89,238.25,354.89,239.22Z" style="fill:#e0e0e0"></path><path d="M354.89,240.79a2.08,2.08,0,0,0-.16-.77.64.64,0,0,0,.07-.28.59.59,0,0,0-.31-.51.9.9,0,0,0-1.31-1.21.22.22,0,0,0,0-.08.58.58,0,0,0-.58-.58.56.56,0,0,0-.35.13,1.94,1.94,0,0,0,0-.24,1.15,1.15,0,0,0-1.15-1.16,1.18,1.18,0,0,0-.9.43.89.89,0,0,0-.85-.6.9.9,0,0,0-.76.42,1.42,1.42,0,0,0-2.45,0,.9.9,0,0,0-.76-.42.89.89,0,0,0-.85.6,1.18,1.18,0,0,0-.9-.43,1.15,1.15,0,0,0-1.15,1.16,1.94,1.94,0,0,0,0,.24.56.56,0,0,0-.35-.13.58.58,0,0,0-.58.58.22.22,0,0,0,0,.08.87.87,0,0,0-.55-.19.91.91,0,0,0-.76,1.4.59.59,0,0,0-.31.51.54.54,0,0,0,.08.28,1.91,1.91,0,0,0-.17.77h0v.6a6.15,6.15,0,0,0,1.56,1.25,13.13,13.13,0,0,0,11.87,0,6.15,6.15,0,0,0,1.56-1.25v-.6Z" style="fill:#fafafa"></path><path d="M354.89,241.39v1.18c0,.83-.71,1.65-2,2.3a9.79,9.79,0,0,1-2.5.84,15,15,0,0,1-3,.29,12.52,12.52,0,0,1-5.49-1.13,4.92,4.92,0,0,1-1.5-1.08,1.87,1.87,0,0,1-.51-1.22v-1.18a6.15,6.15,0,0,0,1.56,1.25,13.13,13.13,0,0,0,11.87,0A6.15,6.15,0,0,0,354.89,241.39Z" style="fill:#f5f5f5"></path><path d="M354.89,239.22v2.17a6.15,6.15,0,0,1-1.56,1.25,13.13,13.13,0,0,1-11.87,0,6.15,6.15,0,0,1-1.56-1.25v-2.17c0,1,.71,1.9,2,2.65a12.22,12.22,0,0,0,11,0C354.18,241.12,354.89,240.18,354.89,239.22Z" style="fill:#ebebeb"></path><path d="M349.15,247.81V258.2a.71.71,0,0,1-.63.7c-.37,0-.74,0-1.12,0s-.76,0-1.13,0a.71.71,0,0,1-.63-.7V247.81a.58.58,0,0,1,.63-.58c.37,0,.75,0,1.13,0s.75,0,1.12,0A.58.58,0,0,1,349.15,247.81Z" style="opacity:0.05"></path><path d="M353.36,246.52v10.39a1.17,1.17,0,0,1-.56.94,9.74,9.74,0,0,1-1.69.62.47.47,0,0,1-.62-.48v-10.4a.85.85,0,0,1,.62-.78,9.88,9.88,0,0,0,1.69-.63C353.11,246,353.36,246.17,353.36,246.52Z" style="opacity:0.05"></path><path d="M341.44,246.52v10.39a1.16,1.16,0,0,0,.55.94,9.74,9.74,0,0,0,1.69.62.47.47,0,0,0,.62-.48v-10.4a.85.85,0,0,0-.62-.78,9.46,9.46,0,0,1-1.68-.63C341.68,246,341.44,246.17,341.44,246.52Z" style="opacity:0.05"></path><path d="M346.4,240.79a.75.75,0,1,1,1.07.91.79.79,0,0,0,0-.46.74.74,0,0,0-.91-.53A.71.71,0,0,0,346.4,240.79Z" style="fill:#f0f0f0"></path><path d="M345.54,241a.5.5,0,0,1,0-.44.48.48,0,0,1,.67-.14.49.49,0,0,1,.2.56.5.5,0,0,0-.19-.24.48.48,0,0,0-.67.15A.24.24,0,0,0,345.54,241Z" style="fill:#f0f0f0"></path><path d="M343.29,239.09a.74.74,0,0,1,0-.68.75.75,0,0,1,1-.37.74.74,0,0,1,.43.79.79.79,0,0,0-.34-.31.75.75,0,0,0-1,.38A.7.7,0,0,0,343.29,239.09Z" style="fill:#f0f0f0"></path><path d="M344.48,238.45a.49.49,0,0,1,0-.44.48.48,0,0,1,.89.35.53.53,0,0,0-.2-.22.48.48,0,0,0-.66.19A.61.61,0,0,0,344.48,238.45Z" style="fill:#f0f0f0"></path><path d="M350,238.6a.77.77,0,0,1,.27-.63.75.75,0,0,1,1.09,1,.8.8,0,0,0-.17-.43.75.75,0,0,0-1.05-.1A.67.67,0,0,0,350,238.6Z" style="fill:#f0f0f0"></path><path d="M349.15,239a.46.46,0,0,1,.15-.41.48.48,0,0,1,.74.61.5.5,0,0,0-.12-.27.49.49,0,0,0-.69,0A.39.39,0,0,0,349.15,239Z" style="fill:#f0f0f0"></path><path d="M351.25,239.76a.48.48,0,1,1,.66-.63.44.44,0,0,0-.3,0,.5.5,0,0,0-.4.56A.42.42,0,0,0,351.25,239.76Z" style="fill:#f0f0f0"></path><path d="M264.75,279.43c-.75-27.73,1.48-34.38,8.86-39.46L276.47,256s-3.36,18.94-3,25.25c.32,5.54.86,12.47,2.17,16.95a3.38,3.38,0,0,0,1.46,1.9c1.89,1.18,2.64,2.38,4.06,3.87,1.11,1.16,2,1.45,1.91,1.81a1.82,1.82,0,0,1-2.34.83,13,13,0,0,1-2.67-1.44,17,17,0,0,0,2.73,4.69c2.64,3.23,2.76,5.22-2.57,5.27-3.33,0-6-2-8.51-9.38a60.33,60.33,0,0,1-2.34-8.26C266.1,290.26,264.87,283.9,264.75,279.43Z" style="fill:#ffa8a7"></path><path d="M279.82,237.86a10.65,10.65,0,0,0-11.41,5.77c-3.09,5.53-3.85,15.05-4.2,24.52,0,0,6.15,5.14,13.52,2.61Z" style="fill:#37474f"></path><path d="M269.45,390.41c-.56.21-.7,1.28-.78,3.4-.07,1.6-.41,4.4,1.47,5s4.63.27,5.83-1.24c1.51-1.89,2.52-3.55,4.67-5.85,1.86-2,3.87-3.86,4.62-6.66.68-2.53.11-3.63-1.61-4.37-2.38-1-6.11,2.3-8,2.82C274.08,383.92,270,390.2,269.45,390.41Z" style="fill:#263238"></path><path d="M269.45,388.45v2.6a6.38,6.38,0,0,0,6.58.18c.11-.25.68-3.73.68-3.73Z" style="fill:#ffa8a7"></path><path d="M290.53,405.41a42.92,42.92,0,0,0-1.15,4.24c-.32,1.57-.78,4.2-.23,5.39s2.7,1.94,6,1.92c2.15,0,5.52,1.45,7.82,2.73s7.32,1.86,9.84,1.56c3-.35,6-2.06,6.52-3.29s-.16-2.5-7.15-5.48c-.06,0-9.71-3.17-13.09-6.9Z" style="fill:#263238"></path><path d="M290.53,402.59s0,1.94,0,3,1.29,2.75,4.67,2.63c2.37-.09,4-.73,3.93-2.68v-2.81Z" style="fill:#ffa8a7"></path><path d="M267.76,353.91a70.2,70.2,0,0,1,3.08-13.55s-.93-11.7-1.38-22.79c-.48-12,0-27-.2-30,0,0,38.64-7.82,39.33,6s-1.52,49.09-2,55.17-1.51,11.46-2.76,21.32-4.72,32.7-4.72,32.7a9.11,9.11,0,0,1-8.6-.18s-2.72-27.68-2.43-34.7a59.55,59.55,0,0,1,2.66-15.31s-.74-11.42-1.38-21.35-1.33-14.7-1.48-19l-.84-.41s-.84,17.13-1.3,23.21-1.43,11.92-3.18,23.21c-1.53,9.8-6.08,30.54-6.08,30.54-4.41,2.39-7.05-.31-7.05-.31S266.57,362.41,267.76,353.91Z" style="fill:#F9D150"></path><g style="opacity:0.30000000000000004"><path d="M267.76,353.91a70.2,70.2,0,0,1,3.08-13.55s-.93-11.7-1.38-22.79c-.48-12,0-27-.2-30,0,0,38.64-7.82,39.33,6s-1.52,49.09-2,55.17-1.51,11.46-2.76,21.32-4.72,32.7-4.72,32.7a9.11,9.11,0,0,1-8.6-.18s-2.72-27.68-2.43-34.7a59.55,59.55,0,0,1,2.66-15.31s-.74-11.42-1.38-21.35-1.33-14.7-1.48-19l-.84-.41s-.84,17.13-1.3,23.21-1.43,11.92-3.18,23.21c-1.53,9.8-6.08,30.54-6.08,30.54-4.41,2.39-7.05-.31-7.05-.31S266.57,362.41,267.76,353.91Z"></path></g><g style="opacity:0.2"><path d="M287.9,312.21s-9.38-4.61-14.07-8.78c0,0,4.36,6.14,10.07,8.86,0,0,2,21.28,2,20.86l1.13-21.35Z"></path></g><polygon points="296.24 233.48 293.95 246.06 282.58 245.23 284.97 230.97 296.24 233.48" style="fill:#ffa8a7"></polygon><path d="M270.58,244.31c1.12-3.42,5.46-7.14,9.81-6.34a128,128,0,0,1,19,4.76c4,1.42,7.61,4.85,7.93,17.94,0,0,1.34,30.5,1.36,36.4-10,3.95-20.37,3.83-26.12,2.57-11.95-2.61-13.39-7.57-13.39-7.57s-.15-21.93.2-31.4C269.7,252.62,269.8,246.66,270.58,244.31Z" style="fill:#f5f5f5"></path><path d="M305,218.17s2.88,4.6,2.53,5S305,224,305,224Z" style="fill:#f28f8f"></path><path d="M297,205.45c6,1.41,7.7,4.11,8.05,13.72.37,10-.72,13.16-2.07,14.48-.91.9-5.85.95-8.33.21-3.1-.93-10.1-3.59-13.29-8.71-3.75-6-4.58-14.09-.35-17.29C287,203.35,294.56,204.88,297,205.45Z" style="fill:#ffa8a7"></path><path d="M305,208c-1.77,3-5.6,4.47-5.6,4.47-1.15,1.31-.51,6.43-2.54,7.24,0,0-.87-3.72-4-3.33s-3.67,4.4-1.74,6.88,3.79,1.59,3.79,1.59-.21,5.29-2.63,8.24c0,0-2.69.8-7.58-.36-3-.71-7.19-4.58-8.89-8.62-3.61-8.53-3.7-16.15,1.75-18.31.67-3.88,3.77-5.56,7.29-6.28,7.57-1.56,12.44,3.16,18.27,2.75C306.43,202,307.05,204.41,305,208Z" style="fill:#263238"></path><path d="M277.41,207.05l-3.56-2.21a2.1,2.1,0,0,1,3.56,2.21Z" style="fill:#263238"></path><path d="M347.49,265.38c-1.87.83-23.9,17.11-27.33,15.22s-21.06-22.49-21.06-22.49a14.24,14.24,0,0,1,0-15.44s5.65,1.05,8.61,5.52,15.72,20.48,15.72,20.48q4.72-2.37,9.43-4.8c2.58-1.34,5.17-2.67,7.69-4.11a9.83,9.83,0,0,0,2-1.22c1.25-1.24,1-4.22,1-5.84a21.69,21.69,0,0,0-.11-2.27c-.11-.92-.29-3.19,1.38-2.47a2.15,2.15,0,0,1,.8.67,3.75,3.75,0,0,1,.59,1.14c.32,1,.22,2,.51,3a.81.81,0,0,0,.2.39.72.72,0,0,0,.53.16c2.42-.07,4.72-3.47,5.84-5.28a4.9,4.9,0,0,1,1.84-2.1c1.33-.62,2.92.27,3.78,1.46a7.71,7.71,0,0,1,1.2,5.35,10.63,10.63,0,0,1-3.17,6.7A32.33,32.33,0,0,1,347.49,265.38Z" style="fill:#ffa8a7"></path><path d="M297.31,242c2.43.28,6.47.46,10.42,4.94,4.62,5.24,10.71,13.78,10.71,13.78a13.49,13.49,0,0,1-10.65,10s-8.34-8.54-10.66-13.24S294.45,245.18,297.31,242Z" style="fill:#37474f"></path></g></g></svg>