<svg xmlns="http://www.w3.org/2000/svg" viewBox="0 0 500 500"><g id="freepik--background-simple--inject-129"><path d="M450.32,383.83c10.95-10.66,19.66-24.2,25.15-41.36,8.54-26.69,11.94-54.92,11.94-82.88,0-87.73-83.5-173.74-169.36-184.21-38.23-4.66-75.34,10-104,34.81-29.44,25.46-47.46,60.23-82.1,79.93-20,11.39-42.36,18.1-62.76,28.77C29.65,239.56,7,281.22,16,325.91c9.49,47.12,45.18,94.35,91.15,111,41.92,15.15,86.46,5.32,128.77-2.43,39.4-7.21,79.19-12.17,119.1-15.48C389.5,416.09,424.39,409.05,450.32,383.83Z" style="fill:#F1EA34"></path><path d="M450.32,383.83c10.95-10.66,19.66-24.2,25.15-41.36,8.54-26.69,11.94-54.92,11.94-82.88,0-87.73-83.5-173.74-169.36-184.21-38.23-4.66-75.34,10-104,34.81-29.44,25.46-47.46,60.23-82.1,79.93-20,11.39-42.36,18.1-62.76,28.77C29.65,239.56,7,281.22,16,325.91c9.49,47.12,45.18,94.35,91.15,111,41.92,15.15,86.46,5.32,128.77-2.43,39.4-7.21,79.19-12.17,119.1-15.48C389.5,416.09,424.39,409.05,450.32,383.83Z" style="fill:#fff;opacity:0.7000000000000001"></path></g><g id="freepik--Plants--inject-129"><path d="M483.74,416.29c-2.08.32-6.6-1-6.61-1s1.77-2.73,1.9-2.88c1.56-1.83,5.63-4.45,8.11-3.42a3.18,3.18,0,0,1,1.45,4.5C487.69,415.18,485.51,416,483.74,416.29Z" style="fill:#F1EA34"></path><path d="M442.09,408.53s0-3.24,0-3.45c.29-2.38,2.24-6.81,4.88-7.32a3.18,3.18,0,0,1,3.69,3c.17,1.88-1.18,3.79-2.51,5C446.59,407.12,442.09,408.53,442.09,408.53Z" style="fill:#F1EA34"></path><path d="M432.68,398c1.29,1,4.54,1.76,5.34,1.94.34.61.68,1.27,1.05,2,.64,1.3,1.35,2.78,2,4.44.18.44.35.92.53,1.38-.46-.72-1.11-1.7-1.18-1.79-1.34-1.62-4.89-4-7.08-3.09a2.8,2.8,0,0,0-1.33,3.94c.78,1.48,2.68,2.24,4.23,2.5s4.94-.56,5.66-.75c.38,1,.74,2.1,1,3.24a35.88,35.88,0,0,1,1.21,6.3l-.13,0c-.34-.71-1.1-2.2-1.17-2.32-1.16-1.76-4.43-4.48-6.71-3.85a2.8,2.8,0,0,0-1.74,3.77c.6,1.55,2.41,2.52,3.92,2.95,1.75.49,5.7-.12,5.85-.14a48.21,48.21,0,0,1,.05,6.37c-.08,1.57-.22,3.16-.38,4.76-.23-.51-1.22-2.46-1.31-2.6-1.15-1.76-4.42-4.48-6.7-3.85a2.79,2.79,0,0,0-1.74,3.77c.6,1.55,2.41,2.52,3.92,2.95,1.71.48,5.49-.09,5.81-.14-.07.72-.14,1.45-.22,2.17-.26,2.37-.53,4.74-.72,7.09-.07.81-.11,1.62-.15,2.42-.36-.75-1.05-2.11-1.12-2.21-1.16-1.77-4.43-4.49-6.71-3.86a2.8,2.8,0,0,0-1.74,3.77c.6,1.56,2.41,2.52,3.92,2.95s4.72,0,5.62-.11c-.06,1.34-.09,2.67-.05,4,0,.57,0,1.15.08,1.69s.09,1.09.13,1.62c.14,1.11.26,2.14.41,3.16.07.52.15,1,.23,1.51-.26-.82-.68-2.11-.73-2.22-.88-1.91-3.7-5.1-6-4.82a2.79,2.79,0,0,0-2.3,3.46c.36,1.63,2,2.86,3.43,3.51s5.28.74,5.74.74c.19,1.23.39,2.43.6,3.54s.46,2.41.69,3.49h1.51c-.27-1.15-.55-2.4-.83-3.75-.21-1-.41-2.08-.61-3.18a20.17,20.17,0,0,0,5.22-2,29.46,29.46,0,0,0,2.85,2.14c-.52,1.14-1,2.24-1.46,3.29-.53,1.25-1,2.41-1.43,3.5h1.58c.35-.94.73-1.92,1.15-3s.79-1.95,1.23-3c.44.15,3.93,1.35,5.66,1.2,1.56-.14,3.52-.76,4.4-2.18a2.78,2.78,0,0,0-1-4c-2.12-1-5.84,1-7.3,2.55-.09.09-1.07,1.36-1.55,2,.26-.62.53-1.23.82-1.87.41-.93.87-1.89,1.31-2.83l.75-1.45c.25-.49.54-.94.81-1.42.41-.69.87-1.38,1.33-2.08.91.48,3.63,1.82,5.15,1.91s3.6-.22,4.68-1.48a2.78,2.78,0,0,0-.4-4.13c-1.94-1.35-5.92.13-7.6,1.41l-.76.71c.47-.66.93-1.33,1.42-2,1.41-1.87,2.9-3.72,4.38-5.59l.92-1.17c.77.4,3.7,1.88,5.29,2s3.6-.22,4.68-1.48a2.79,2.79,0,0,0-.4-4.14c-1.93-1.34-5.92.14-7.6,1.42-.06,0-.44.41-.88.82.8-1,1.57-2.05,2.31-3.1a49.63,49.63,0,0,0,3.46-5.61c.27.14,3.67,1.95,5.44,2.06,1.57.09,3.6-.22,4.68-1.49a2.78,2.78,0,0,0-.4-4.13c-1.93-1.35-5.92.14-7.6,1.41-.11.09-1.51,1.43-2,1.93a.16.16,0,0,1,0-.07,37.1,37.1,0,0,0,2.35-6,49.59,49.59,0,0,0,1.32-5.63c.33-1.76.51-3.4.67-4.84.08-.78.14-1.5.18-2.17l0,0s1.36-2.5,1.43-2.67c.77-2,1.09-6.2-.74-7.69a2.79,2.79,0,0,0-4.08.76c-.92,1.39-.66,3.42-.13,4.91s2.81,4,3.38,4.56c-.06.69-.13,1.43-.23,2.25-.19,1.44-.41,3.06-.77,4.81-.1.46-.22,1-.33,1.45,0-.86,0-2,0-2.14-.23-2.1-1.9-6-4.21-6.49a2.78,2.78,0,0,0-3.27,2.56c-.17,1.65,1,3.34,2.14,4.41s4.43,2.26,5.14,2.5c-.26,1.07-.55,2.16-.92,3.28a35.58,35.58,0,0,1-2.46,5.92l-.13,0c.11-.79.3-2.45.3-2.59,0-2.1-1.22-6.17-3.46-6.9a2.79,2.79,0,0,0-3.54,2.18c-.35,1.62.63,3.43,1.65,4.62,1.18,1.38,4.82,3,4.95,3.1a46.82,46.82,0,0,1-3.47,5.35C469,431.7,468,433,467,434.19c.09-.55.34-2.73.34-2.89,0-2.1-1.22-6.17-3.46-6.9a2.79,2.79,0,0,0-3.54,2.18C460,428.2,461,430,462,431.2c1.15,1.34,4.63,2.95,4.92,3.09L465.56,436c-1.52,1.83-3.06,3.66-4.52,5.51-.5.64-1,1.29-1.45,1.94.11-.83.28-2.34.28-2.47,0-2.11-1.22-6.18-3.46-6.91a2.8,2.8,0,0,0-3.54,2.18c-.35,1.63.62,3.43,1.65,4.63s3.92,2.61,4.74,3c-.78,1.09-1.54,2.18-2.23,3.3-.29.48-.62,1-.87,1.45l-.78,1.43c-.5,1-1,1.91-1.41,2.85l-.64,1.39c.24-.82.6-2.13.62-2.26.32-2.08-.28-6.29-2.38-7.35a2.8,2.8,0,0,0-3.83,1.62,2.94,2.94,0,0,0-.16.6,10.7,10.7,0,0,0-2.5,4.86c0,.13-.14,1.73-.18,2.55-.12-.67-.24-1.33-.35-2-.17-1-.32-2.06-.47-3.08-.05-.54-.11-1.08-.17-1.62s-.07-1.08-.11-1.63c0-.81,0-1.64,0-2.47,1-.11,4-.49,5.35-1.25s2.88-2.17,3.09-3.82a2.8,2.8,0,0,0-2.62-3.23c-2.36-.05-4.86,3.38-5.56,5.37,0,.07-.12.5-.24,1,0-.81,0-1.62.1-2.44.14-2.33.36-4.7.56-7.08.05-.49.08-1,.12-1.48.87-.09,4.13-.47,5.51-1.27s2.88-2.16,3.09-3.82a2.79,2.79,0,0,0-2.62-3.22c-2.36-.06-4.86,3.38-5.56,5.37,0,.07-.14.59-.27,1.17.09-1.29.17-2.58.21-3.86a49.5,49.5,0,0,0-.21-6.59c.3,0,4.13-.4,5.67-1.28,1.36-.79,2.88-2.17,3.09-3.82a2.8,2.8,0,0,0-2.61-3.23c-2.36-.06-4.87,3.38-5.56,5.37-.05.14-.48,2-.61,2.71V418a38.08,38.08,0,0,0-1.36-6.33,51.1,51.1,0,0,0-2-5.42c-.7-1.65-1.44-3.12-2.11-4.41-.37-.7-.72-1.33-1-1.91h0s-.24-2.84-.28-3c-.44-2.06-2.51-5.77-4.86-6a2.8,2.8,0,0,0-3,2.89C430.09,395.48,431.42,397,432.68,398Z" style="fill:#F1EA34"></path><path d="M236.17,416.29c-2.08.32-6.61-1-6.61-1s1.77-2.73,1.9-2.88c1.56-1.83,5.63-4.45,8.11-3.42a3.18,3.18,0,0,1,1.44,4.5C240.12,415.18,237.94,416,236.17,416.29Z" style="fill:#F1EA34"></path><path d="M194.52,408.53c-.05,0,0-3.24,0-3.45.29-2.38,2.24-6.81,4.88-7.32a3.18,3.18,0,0,1,3.69,3c.17,1.88-1.18,3.79-2.51,5C199,407.12,194.52,408.53,194.52,408.53Z" style="fill:#F1EA34"></path><path d="M185.11,398c1.29,1,4.53,1.76,5.34,1.94.33.61.68,1.27,1.05,2,.64,1.3,1.35,2.78,2,4.44.17.44.35.92.52,1.38-.46-.72-1.1-1.7-1.17-1.79-1.35-1.62-4.89-4-7.09-3.09a2.8,2.8,0,0,0-1.32,3.94c.77,1.48,2.68,2.24,4.23,2.5s4.94-.56,5.66-.75c.37,1,.73,2.1,1,3.24a35.87,35.87,0,0,1,1.22,6.3l-.13,0c-.35-.71-1.1-2.2-1.18-2.32-1.15-1.76-4.42-4.48-6.7-3.85a2.78,2.78,0,0,0-1.74,3.77c.6,1.55,2.41,2.52,3.92,2.95,1.75.49,5.7-.12,5.85-.14a48.21,48.21,0,0,1,0,6.37c-.08,1.57-.22,3.16-.39,4.76-.22-.51-1.21-2.46-1.3-2.6-1.15-1.76-4.43-4.48-6.7-3.85a2.8,2.8,0,0,0-1.75,3.77c.61,1.55,2.42,2.52,3.93,2.95,1.7.48,5.49-.09,5.81-.14-.07.72-.14,1.45-.22,2.17-.26,2.37-.53,4.74-.73,7.09-.06.81-.1,1.62-.14,2.42-.37-.75-1.05-2.11-1.13-2.21-1.15-1.77-4.42-4.49-6.7-3.86a2.78,2.78,0,0,0-1.74,3.77c.6,1.56,2.41,2.52,3.92,2.95s4.72,0,5.62-.11c-.06,1.34-.09,2.67-.05,4,0,.57,0,1.15.08,1.69s.09,1.09.13,1.62c.14,1.11.26,2.14.41,3.16.07.52.15,1,.22,1.51-.25-.82-.67-2.11-.73-2.22-.87-1.91-3.69-5.1-6-4.82a2.79,2.79,0,0,0-2.29,3.46c.36,1.63,2,2.86,3.43,3.51s5.28.74,5.74.74c.19,1.23.39,2.43.6,3.54s.46,2.41.69,3.49h1.51c-.27-1.15-.55-2.4-.83-3.75-.21-1-.42-2.08-.62-3.18a20.08,20.08,0,0,0,5.23-2,29.81,29.81,0,0,0,2.84,2.14c-.51,1.14-1,2.24-1.45,3.29-.53,1.25-1,2.41-1.43,3.5h1.58c.35-.94.72-1.92,1.14-3s.8-1.95,1.24-3c.44.15,3.93,1.35,5.66,1.2,1.56-.14,3.52-.76,4.4-2.18a2.79,2.79,0,0,0-1-4c-2.12-1-5.84,1-7.3,2.55-.09.09-1.07,1.36-1.56,2,.27-.62.54-1.23.83-1.87.4-.93.87-1.89,1.31-2.83l.75-1.45c.24-.49.54-.94.81-1.42.41-.69.87-1.38,1.33-2.08.91.48,3.63,1.82,5.15,1.91s3.59-.22,4.68-1.48a2.79,2.79,0,0,0-.4-4.13c-1.94-1.35-5.92.13-7.6,1.41l-.76.71c.46-.66.93-1.33,1.42-2,1.41-1.87,2.89-3.72,4.38-5.59l.92-1.17c.77.4,3.69,1.88,5.29,2s3.6-.22,4.68-1.48a2.79,2.79,0,0,0-.4-4.14c-1.94-1.34-5.92.14-7.6,1.42-.06,0-.45.41-.88.82.79-1,1.57-2.05,2.31-3.1a49.63,49.63,0,0,0,3.46-5.61c.27.14,3.67,1.95,5.44,2.06,1.57.09,3.6-.22,4.68-1.49a2.78,2.78,0,0,0-.4-4.13c-1.93-1.35-5.92.14-7.6,1.41-.12.09-1.51,1.43-2,1.93l0-.07a36.28,36.28,0,0,0,2.36-6,49.59,49.59,0,0,0,1.32-5.63c.32-1.76.51-3.4.67-4.84.08-.78.13-1.5.18-2.17l0,0s1.37-2.5,1.44-2.67c.76-2,1.09-6.2-.74-7.69a2.8,2.8,0,0,0-4.09.76c-.91,1.39-.65,3.42-.13,4.91s2.82,4,3.39,4.56c-.06.69-.13,1.43-.23,2.25-.19,1.44-.41,3.06-.78,4.81-.09.46-.21,1-.32,1.45,0-.86,0-2,0-2.14-.22-2.1-1.89-6-4.2-6.49a2.78,2.78,0,0,0-3.27,2.56c-.18,1.65,1,3.34,2.14,4.41s4.43,2.26,5.14,2.5c-.26,1.07-.55,2.16-.92,3.28a36.45,36.45,0,0,1-2.46,5.92l-.13,0c.11-.79.3-2.45.3-2.59,0-2.1-1.22-6.17-3.46-6.9a2.79,2.79,0,0,0-3.54,2.18c-.35,1.62.62,3.43,1.65,4.62,1.18,1.38,4.82,3,5,3.1a48.21,48.21,0,0,1-3.47,5.35c-.93,1.27-1.93,2.52-3,3.76.1-.55.35-2.73.35-2.89,0-2.1-1.22-6.17-3.47-6.9a2.78,2.78,0,0,0-3.53,2.18c-.35,1.62.62,3.43,1.65,4.62,1.15,1.34,4.63,2.95,4.92,3.09L218,436c-1.53,1.83-3.06,3.66-4.52,5.51-.5.64-1,1.29-1.46,1.94.12-.83.29-2.34.29-2.47,0-2.11-1.22-6.18-3.46-6.91a2.8,2.8,0,0,0-3.54,2.18c-.35,1.63.62,3.43,1.65,4.63s3.92,2.61,4.74,3c-.79,1.09-1.54,2.18-2.24,3.3-.28.48-.61,1-.86,1.45s-.53.95-.78,1.43c-.5,1-1,1.91-1.41,2.85l-.64,1.39c.24-.82.59-2.13.61-2.26.33-2.08-.27-6.29-2.37-7.35a2.8,2.8,0,0,0-3.83,1.62,2.94,2.94,0,0,0-.16.6,10.82,10.82,0,0,0-2.51,4.86c0,.13-.13,1.73-.18,2.55-.11-.67-.23-1.33-.35-2-.17-1-.31-2.06-.46-3.08-.06-.54-.11-1.08-.17-1.62s-.07-1.08-.11-1.63c0-.81,0-1.64,0-2.47,1-.11,4-.49,5.35-1.25s2.88-2.17,3.09-3.82a2.8,2.8,0,0,0-2.62-3.23c-2.36-.05-4.86,3.38-5.56,5.37,0,.07-.12.5-.24,1,0-.81,0-1.62.09-2.44.15-2.33.36-4.7.57-7.08l.12-1.48c.87-.09,4.12-.47,5.51-1.27s2.88-2.16,3.08-3.82a2.78,2.78,0,0,0-2.61-3.22c-2.36-.06-4.87,3.38-5.56,5.37,0,.07-.14.59-.27,1.17.09-1.29.17-2.58.21-3.86a51.24,51.24,0,0,0-.21-6.59c.3,0,4.13-.4,5.67-1.28,1.36-.79,2.88-2.17,3.09-3.82a2.8,2.8,0,0,0-2.62-3.23c-2.36-.06-4.86,3.38-5.56,5.37,0,.14-.47,2-.6,2.71V418a37.09,37.09,0,0,0-1.37-6.33,49,49,0,0,0-2-5.42c-.7-1.65-1.45-3.12-2.11-4.41-.37-.7-.72-1.33-1-1.91h0s-.24-2.84-.28-3c-.44-2.06-2.51-5.77-4.86-6a2.8,2.8,0,0,0-3,2.89C182.51,395.48,183.85,397,185.11,398Z" style="fill:#F1EA34"></path><path d="M394.39,416.29c-2.07.32-6.6-1-6.6-1s1.76-2.73,1.9-2.88c1.55-1.83,5.62-4.45,8.1-3.42a3.18,3.18,0,0,1,1.45,4.5C398.34,415.18,396.16,416,394.39,416.29Z" style="fill:#F1EA34"></path><path d="M352.74,408.53c-.05,0,0-3.24,0-3.45.28-2.38,2.24-6.81,4.87-7.32a3.18,3.18,0,0,1,3.69,3c.17,1.88-1.18,3.79-2.5,5C357.24,407.12,352.74,408.53,352.74,408.53Z" style="fill:#F1EA34"></path><path d="M343.33,398c1.29,1,4.54,1.76,5.35,1.94.33.61.68,1.27,1,2,.64,1.3,1.35,2.78,2,4.44.18.44.35.92.53,1.38-.46-.72-1.1-1.7-1.18-1.79-1.34-1.62-4.89-4-7.08-3.09a2.79,2.79,0,0,0-1.32,3.94c.77,1.48,2.67,2.24,4.22,2.5s4.94-.56,5.66-.75c.38,1,.74,2.1,1.05,3.24a35.88,35.88,0,0,1,1.21,6.3l-.13,0c-.34-.71-1.1-2.2-1.17-2.32-1.16-1.76-4.43-4.48-6.7-3.85a2.8,2.8,0,0,0-1.75,3.77c.6,1.55,2.41,2.52,3.93,2.95,1.74.49,5.69-.12,5.84-.14a50,50,0,0,1,.06,6.37c-.08,1.57-.23,3.16-.39,4.76-.23-.51-1.22-2.46-1.3-2.6-1.16-1.76-4.43-4.48-6.71-3.85a2.8,2.8,0,0,0-1.74,3.77c.6,1.55,2.41,2.52,3.92,2.95,1.71.48,5.5-.09,5.81-.14-.07.72-.14,1.45-.22,2.17-.26,2.37-.53,4.74-.72,7.09-.07.81-.11,1.62-.15,2.42-.36-.75-1-2.11-1.12-2.21-1.16-1.77-4.43-4.49-6.7-3.86a2.8,2.8,0,0,0-1.75,3.77c.6,1.56,2.41,2.52,3.93,2.95s4.71,0,5.61-.11c-.06,1.34-.08,2.67-.05,4,0,.57,0,1.15.08,1.69s.09,1.09.14,1.62c.13,1.11.25,2.14.4,3.16.07.52.15,1,.23,1.51-.26-.82-.68-2.11-.73-2.22-.88-1.91-3.7-5.1-6-4.82a2.79,2.79,0,0,0-2.3,3.46c.36,1.63,2,2.86,3.43,3.51,1.58.72,5.29.74,5.74.74.19,1.23.39,2.43.6,3.54s.46,2.41.69,3.49h1.52q-.42-1.73-.84-3.75c-.21-1-.41-2.08-.61-3.18a20.17,20.17,0,0,0,5.22-2,29.46,29.46,0,0,0,2.85,2.14c-.52,1.14-1,2.24-1.45,3.29-.53,1.25-1,2.41-1.44,3.5h1.58c.35-.94.73-1.92,1.15-3s.79-1.95,1.23-3c.44.15,3.93,1.35,5.66,1.2,1.57-.14,3.52-.76,4.4-2.18a2.78,2.78,0,0,0-1-4c-2.12-1-5.83,1-7.3,2.55-.09.09-1.07,1.36-1.55,2,.27-.62.53-1.23.82-1.87.41-.93.87-1.89,1.31-2.83l.75-1.45c.25-.49.54-.94.81-1.42.41-.69.87-1.38,1.33-2.08.92.48,3.63,1.82,5.15,1.91s3.6-.22,4.68-1.48a2.78,2.78,0,0,0-.4-4.13c-1.93-1.35-5.92.13-7.6,1.41l-.76.71c.47-.66.93-1.33,1.43-2,1.4-1.87,2.89-3.72,4.37-5.59l.92-1.17c.77.4,3.7,1.88,5.29,2s3.6-.22,4.68-1.48a2.79,2.79,0,0,0-.4-4.14c-1.93-1.34-5.92.14-7.59,1.42-.06,0-.45.41-.88.82.79-1,1.56-2.05,2.3-3.1a49.73,49.73,0,0,0,3.47-5.61c.27.14,3.66,1.95,5.43,2.06,1.57.09,3.6-.22,4.68-1.49a2.78,2.78,0,0,0-.39-4.13c-1.94-1.35-5.93.14-7.6,1.41-.12.09-1.52,1.43-2,1.93a.43.43,0,0,1,0-.07,37.1,37.1,0,0,0,2.35-6,49.59,49.59,0,0,0,1.32-5.63c.33-1.76.52-3.4.67-4.84.08-.78.14-1.5.18-2.17l0,0s1.37-2.5,1.43-2.67c.77-2,1.09-6.2-.74-7.69a2.79,2.79,0,0,0-4.08.76c-.92,1.39-.66,3.42-.13,4.91s2.81,4,3.39,4.56c-.07.69-.14,1.43-.24,2.25-.19,1.44-.41,3.06-.77,4.81-.1.46-.22,1-.33,1.45,0-.86,0-2,0-2.14-.23-2.1-1.9-6-4.21-6.49a2.78,2.78,0,0,0-3.27,2.56c-.17,1.65,1,3.34,2.15,4.41s4.42,2.26,5.13,2.5c-.26,1.07-.55,2.16-.91,3.28a36.52,36.52,0,0,1-2.47,5.92l-.13,0c.11-.79.31-2.45.31-2.59,0-2.1-1.23-6.17-3.47-6.9a2.79,2.79,0,0,0-3.54,2.18c-.35,1.62.63,3.43,1.65,4.62,1.19,1.38,4.82,3,5,3.1a49.69,49.69,0,0,1-3.47,5.35c-.94,1.27-1.94,2.52-2.95,3.76.09-.55.34-2.73.34-2.89,0-2.1-1.22-6.17-3.46-6.9a2.79,2.79,0,0,0-3.54,2.18c-.35,1.62.63,3.43,1.65,4.62,1.16,1.34,4.63,2.95,4.92,3.09-.46.56-.91,1.13-1.38,1.69-1.52,1.83-3.06,3.66-4.51,5.51-.51.64-1,1.29-1.46,1.94.11-.83.28-2.34.28-2.47,0-2.11-1.22-6.18-3.46-6.91a2.8,2.8,0,0,0-3.54,2.18c-.35,1.63.63,3.43,1.65,4.63s3.93,2.61,4.75,3c-.79,1.09-1.55,2.18-2.24,3.3-.29.48-.62,1-.87,1.45L366,450c-.5,1-1,1.91-1.4,2.85-.23.47-.43.93-.65,1.39.24-.82.6-2.13.62-2.26.32-2.08-.27-6.29-2.38-7.35a2.8,2.8,0,0,0-3.83,1.62,3.77,3.77,0,0,0-.16.6,10.7,10.7,0,0,0-2.5,4.86c0,.13-.14,1.73-.18,2.55-.12-.67-.24-1.33-.35-2-.17-1-.32-2.06-.46-3.08l-.18-1.62c-.07-.55-.07-1.08-.11-1.63,0-.81,0-1.64,0-2.47,1-.11,4-.49,5.35-1.25s2.88-2.17,3.09-3.82a2.8,2.8,0,0,0-2.61-3.23c-2.36-.05-4.87,3.38-5.56,5.37,0,.07-.13.5-.25,1,0-.81.05-1.62.1-2.44.14-2.33.36-4.7.56-7.08.05-.49.08-1,.13-1.48.86-.09,4.12-.47,5.5-1.27s2.88-2.16,3.09-3.82a2.79,2.79,0,0,0-2.62-3.22c-2.35-.06-4.86,3.38-5.55,5.37,0,.07-.15.59-.28,1.17.09-1.29.17-2.58.21-3.86a49.5,49.5,0,0,0-.21-6.59c.31,0,4.14-.4,5.67-1.28,1.37-.79,2.88-2.17,3.09-3.82a2.79,2.79,0,0,0-2.61-3.23c-2.36-.06-4.87,3.38-5.56,5.37-.05.14-.48,2-.61,2.71V418a36.16,36.16,0,0,0-1.36-6.33,51.1,51.1,0,0,0-2-5.42c-.7-1.65-1.44-3.12-2.11-4.41-.37-.7-.71-1.33-1.05-1.91h.05s-.24-2.84-.28-3c-.44-2.06-2.51-5.77-4.86-6a2.8,2.8,0,0,0-3,2.89C340.74,395.48,342.08,397,343.33,398Z" style="fill:#F1EA34"></path></g><g id="freepik--Tree--inject-129"><path d="M298,209.79s54.6,5.4,82.27,39.25c0,0,29.23-39.21,81.74-38.41a106.12,106.12,0,1,0-164-.75Z" style="fill:#F1EA34"></path><path d="M298,209.79s54.6,5.4,82.27,39.25c0,0,29.23-39.21,81.74-38.41a106.12,106.12,0,1,0-164-.75Z" style="fill:#fff;opacity:0.5"></path><polygon points="378.43 44.28 376.59 461.68 385.8 461.68 378.43 44.28" style="fill:#737373"></polygon><path d="M381.2,238.72s18.43-33.17,51.6-43.31c0,0-35,8.29-52.53,36.86Z" style="fill:#737373"></path><path d="M381.2,144.73s18.43-33.18,51.6-43.31c0,0-35,8.29-52.53,36.86Z" style="fill:#737373"></path><path d="M381.2,191.72s18.43-33.17,51.6-43.31c0,0-35,8.3-52.53,36.86Z" style="fill:#737373"></path><path d="M378.46,168.69s-17.78-33.18-49.79-43.31c0,0,33.79,8.29,50.68,36.86Z" style="fill:#737373"></path><path d="M378.46,214.76s-17.78-33.17-49.79-43.31c0,0,33.79,8.29,50.68,36.86Z" style="fill:#737373"></path></g><g id="freepik--Clouds--inject-129"><path d="M234.47,89.65c-5.51-3-8-.5-10-3s5.51-9-9.52-15.53c0,0-1-14-21.55-14.54s-15,14-20.55,17.54-7-2-12.53,1.51-3,10.52-7.52,11.52-10.52-4.51-16-1-5.52,6.52-8,6.52-7.52-2-10.53,0-6.51,4.51-6.51,4.51H238.48S240,92.66,234.47,89.65Z" style="fill:none;stroke:#999;stroke-linecap:round;stroke-linejoin:round"></path><path d="M159.47,87.59a19.27,19.27,0,0,1-2.24,1.06" style="fill:none;stroke:#999;stroke-linecap:round;stroke-linejoin:round"></path><path d="M186.59,64.18a8.54,8.54,0,0,0-4.89,6.12c-.92,4.58-3.06,7.64-5.51,8S164.57,77.64,163,81a13.54,13.54,0,0,0-.86,3.07" style="fill:none;stroke:#999;stroke-linecap:round;stroke-linejoin:round"></path><path d="M231.84,143.94c-2-1.1-2.94-.19-3.67-1.1s2-3.31-3.48-5.69c0,0-.37-5.13-7.89-5.32s-5.5,5.14-7.52,6.42-2.56-.73-4.58.55-1.1,3.85-2.75,4.22-3.85-1.65-5.87-.37-2,2.39-2.93,2.39-2.75-.74-3.85,0-2.38,1.65-2.38,1.65H233.3A2.37,2.37,0,0,0,231.84,143.94Z" style="fill:none;stroke:#999;stroke-linecap:round;stroke-linejoin:round"></path><path d="M204.4,143.18a5.79,5.79,0,0,1-.82.39" style="fill:none;stroke:#999;stroke-linecap:round;stroke-linejoin:round"></path><path d="M214.32,134.62a3.12,3.12,0,0,0-1.79,2.24c-.34,1.67-1.12,2.79-2,2.9s-4.25-.22-4.81,1a5.11,5.11,0,0,0-.31,1.13" style="fill:none;stroke:#999;stroke-linecap:round;stroke-linejoin:round"></path></g><g id="freepik--Cooler--inject-129"><path d="M40.14,397.8H151.07a0,0,0,0,1,0,0v56.13a7.75,7.75,0,0,1-7.75,7.75H47.89a7.75,7.75,0,0,1-7.75-7.75V397.8a0,0,0,0,1,0,0Z" style="fill:#F1EA34;stroke:#263238;stroke-linecap:round;stroke-linejoin:round"></path><path d="M36.27,397.8V425c0,4.92,4.45,8.91,9.94,8.91H74.85A6.34,6.34,0,0,1,80,436.48h0a11.1,11.1,0,0,0,9,4.4h13.15a11.08,11.08,0,0,0,9-4.4h0a6.35,6.35,0,0,1,5.18-2.53H145c5.49,0,9.94-4,9.94-8.91V397.8Z" style="fill:#F1EA34;stroke:#263238;stroke-linecap:round;stroke-linejoin:round"></path><path d="M45,378.56h101.1a8,8,0,0,1,8,8v8.48a0,0,0,0,1,0,0H37a0,0,0,0,1,0,0v-8.48A8,8,0,0,1,45,378.56Z" style="fill:#fff;stroke:#263238;stroke-linecap:round;stroke-linejoin:round"></path><rect x="31.55" y="385.28" width="128.04" height="16.5" rx="4.01" style="fill:#fff;stroke:#263238;stroke-linecap:round;stroke-linejoin:round"></rect><line x1="31.55" y1="397.81" x2="159.59" y2="397.81" style="fill:none;stroke:#263238;stroke-linecap:round;stroke-linejoin:round"></line><polygon points="102.54 394.96 90.21 394.96 87.57 397.81 105.18 397.81 102.54 394.96" style="fill:#fff;stroke:#263238;stroke-linecap:round;stroke-linejoin:round"></polygon></g><g id="freepik--light-bulbs--inject-129"><path d="M15.72,45.54s203.81,64.66,463.73-2.28" style="fill:none;stroke:#263238;stroke-linecap:round;stroke-linejoin:round"></path><circle cx="66.34" cy="74.82" r="6.98" transform="translate(-31.64 54.86) rotate(-36.92)" style="fill:#fff;stroke:#263238;stroke-linecap:round;stroke-linejoin:round"></circle><path d="M67.47,61.93h.39a3.37,3.37,0,0,1,3.37,3.37v3.76a0,0,0,0,1,0,0H64.1a0,0,0,0,1,0,0V65.31A3.37,3.37,0,0,1,67.47,61.93Z" transform="translate(9.88 -8.86) rotate(8.08)" style="fill:#263238;stroke:#263238;stroke-linecap:round;stroke-linejoin:round"></path><path d="M64.18,57.32s4,1.6,4.72,4.75a6.9,6.9,0,0,1,3.24-3.18" style="fill:none;stroke:#263238;stroke-linecap:round;stroke-linejoin:round"></path><circle cx="141.4" cy="85.51" r="6.98" transform="translate(-21.03 115.91) rotate(-41.76)" style="fill:#fff;stroke:#263238;stroke-linecap:round;stroke-linejoin:round"></circle><path d="M141.84,72.55h.39a3.37,3.37,0,0,1,3.37,3.37v3.76a0,0,0,0,1,0,0h-7.13a0,0,0,0,1,0,0V75.92a3.37,3.37,0,0,1,3.37-3.37Z" transform="translate(5.49 -9.45) rotate(3.89)" style="fill:#263238;stroke:#263238;stroke-linecap:round;stroke-linejoin:round"></path><path d="M138,68.21s4.15,1.31,5.06,4.4a6.91,6.91,0,0,1,3-3.41" style="fill:none;stroke:#263238;stroke-linecap:round;stroke-linejoin:round"></path><path d="M212.54,90.2a7,7,0,1,1-6.82-7.14A7,7,0,0,1,212.54,90.2Z" style="fill:#fff;stroke:#263238;stroke-linecap:round;stroke-linejoin:round"></path><path d="M205.58,77.07H206a3.37,3.37,0,0,1,3.37,3.37V84.2a0,0,0,0,1,0,0h-7.13a0,0,0,0,1,0,0V80.44A3.37,3.37,0,0,1,205.58,77.07Z" transform="translate(1.88 -4.65) rotate(1.3)" style="fill:#263238;stroke:#263238;stroke-linecap:round;stroke-linejoin:round"></path><path d="M201.35,72.92s4.2,1.11,5.25,4.16a6.85,6.85,0,0,1,2.84-3.54" style="fill:none;stroke:#263238;stroke-linecap:round;stroke-linejoin:round"></path><path d="M285,89.74A7,7,0,1,1,277.82,83,7,7,0,0,1,285,89.74Z" style="fill:#fff;stroke:#263238;stroke-linecap:round;stroke-linejoin:round"></path><path d="M277.54,77h.39a3.37,3.37,0,0,1,3.37,3.37v3.76a0,0,0,0,1,0,0h-7.13a0,0,0,0,1,0,0V80.37A3.37,3.37,0,0,1,277.54,77Z" transform="translate(-2.53 9.29) rotate(-1.91)" style="fill:#263238;stroke:#263238;stroke-linecap:round;stroke-linejoin:round"></path><path d="M272.89,73.11s4.25.88,5.47,3.87a6.86,6.86,0,0,1,2.64-3.7" style="fill:none;stroke:#263238;stroke-linecap:round;stroke-linejoin:round"></path><path d="M360.94,82.67a7,7,0,1,1-8-5.78A7,7,0,0,1,360.94,82.67Z" style="fill:#fff;stroke:#263238;stroke-linecap:round;stroke-linejoin:round"></path><path d="M352.34,70.92h.39a3.37,3.37,0,0,1,3.37,3.37v3.76a0,0,0,0,1,0,0H349a0,0,0,0,1,0,0V74.29A3.37,3.37,0,0,1,352.34,70.92Z" transform="translate(-7.37 57.28) rotate(-9.19)" style="fill:#263238;stroke:#263238;stroke-linecap:round;stroke-linejoin:round"></path><path d="M346.78,67.71s4.34.33,5.92,3.14a6.9,6.9,0,0,1,2.15-4" style="fill:none;stroke:#263238;stroke-linecap:round;stroke-linejoin:round"></path><circle cx="428.56" cy="72.37" r="6.98" transform="translate(6.14 174.67) rotate(-23.2)" style="fill:#fff;stroke:#263238;stroke-linecap:round;stroke-linejoin:round"></circle><path d="M426.46,59.58h.39A3.37,3.37,0,0,1,430.22,63v3.76a0,0,0,0,1,0,0h-7.13a0,0,0,0,1,0,0V63A3.37,3.37,0,0,1,426.46,59.58Z" transform="translate(-3.95 87.7) rotate(-11.68)" style="fill:#263238;stroke:#263238;stroke-linecap:round;stroke-linejoin:round"></path><path d="M420.61,56.62s4.35.15,6.05,2.88a6.9,6.9,0,0,1,2-4.09" style="fill:none;stroke:#263238;stroke-linecap:round;stroke-linejoin:round"></path></g><g id="freepik--character-3--inject-129"><path d="M321.42,460.47h13.83L329,393.56a4,4,0,0,0-3.93-3.52H288.24a4,4,0,0,0-3.93,3.52l-6.21,66.91h13.84l2-24.44h25.55ZM294.1,433l1.65-24.69H317.6L319.25,433Z" style="fill:#263238;stroke:#263238;stroke-linecap:round;stroke-linejoin:round"></path><path d="M345.68,280.74c-1.22-.31-13.44-4-16.8-5.5S324,272.8,324,272.8l.3-15.28s-5.19,6.42-9.47,8.25-10.69,1.83-10.69,1.83l-.31,5.81h-18c-3.67,0-10.7,6.11-11.92,11.3a34.62,34.62,0,0,1-6.11,12.22c-1.83,2.45-7.94,9.78-7.94,9.78s-7.69-24-7.69-29.82,1.27-8.07.66-11.12-.91-3.36-.91-5.5.91-4.89.91-6.72-4.28-.31-4.28,1.83-.21,7.33-.21,7.33-6.51-5.19-6.81-6.11-4.89-4.89-6.42-5.5a23.29,23.29,0,0,0-2.75-.91,1.34,1.34,0,0,0-.45,2.39c1.58,1.58,5,5.63,5,5.63s-5.68-5.92-7.23-5.89-1.55,1.61-.43,3.86a40.91,40.91,0,0,0,4,5.61c.52,1.58,1,3.06,1,3.06s-3.66,4.59,0,8.86,7.34,8,7.34,8,2.14,11.3,2.44,17.11-.3,11.3,2.75,18,10.39,13.44,12.53,13.44,21.69-19.55,21.69-19.55,1.22,13.75,1.22,23.53S281,346.55,281,346.55a117.32,117.32,0,0,0-2.14,17.72c-.61,11,4.58,21.38,9.78,23.52s26.27,1.84,29.63,1.84,6.11-.61,8-4,4.88-13.44,4.88-21.38,4.59-24.14,5.5-29.33,7.54-19.68,7.54-19.68a53.22,53.22,0,0,0,8.25-17.11C355.15,288.07,346.9,281.05,345.68,280.74Z" style="fill:#c9c9c9;stroke:#263238;stroke-linecap:round;stroke-linejoin:round"></path><path d="M316.55,269.32s-9.32,4.05-12.73,4.09l0-3.74Z" style="fill:#263238;stroke:#263238;stroke-linecap:round;stroke-linejoin:round"></path><path d="M318.08,389.83c3.36,0,6.11-.61,7.94-4s4.89-13.45,4.89-21.39c0-4.82,1.69-12.67,3.22-19.26l-52.34-5.48c-.29,5.42-1,7-1,7a117.32,117.32,0,0,0-2.14,17.72c-.61,11,4.58,21.39,9.77,23.53S314.72,389.83,318.08,389.83Z" style="fill:#fff;stroke:#263238;stroke-linecap:round;stroke-linejoin:round"></path><path d="M352.4,298.15c2.75-10.08-5.5-17.1-6.72-17.41-.88-.22-7.43-2.17-12.3-3.82-4.21,5.16-15.23,17.44-23.35,15.61-9-2-10.61-15.88-10.85-19.12H285.8c-3.67,0-10.7,6.11-11.92,11.3a34.62,34.62,0,0,1-6.11,12.22c-.43.58-1.12,1.45-1.9,2.42,4.13,5,7.86,12,10,16.32,2.94-2.85,5.07-5,5.07-5s1.22,13.75,1.22,23.53S281,346.55,281,346.55s-.49,3.06-.6,3.58c17.61,7.44,39.87,6.61,51.41,7.1,1.32-8.17,4.1-18.37,4.79-22.29.92-5.2,7.54-19.68,7.54-19.68A53.22,53.22,0,0,0,352.4,298.15Z" style="fill:#263238;stroke:#263238;stroke-linecap:round;stroke-linejoin:round"></path><line x1="280.91" y1="310.68" x2="277.68" y2="293.52" style="fill:none;stroke:#263238;stroke-linecap:round;stroke-linejoin:round"></line><line x1="236.84" y1="258.21" x2="241.79" y2="262.71" style="fill:none;stroke:#263238;stroke-linecap:round;stroke-linejoin:round"></line><path d="M235.08,275.24s-2.75-3.75-2.52-5.1-.39-2.47,1.6-5.29a11,11,0,0,1,6.28-4.39c1.35-.23,2.25-.23,1.8.9s-2.7,2.48-3.83,3.38-2.25,2-1.57,4.05a17.13,17.13,0,0,0,1.35,3.15" style="fill:#c9c9c9;stroke:#263238;stroke-linecap:round;stroke-linejoin:round"></path><path d="M244.25,279.21v-3.36c0-1.53-5.81-4.89-5.81-4.89v-2.75a18.55,18.55,0,0,0,3.36-.91,1.62,1.62,0,0,0,1.22-1.84s-6.11.31-7,1.23-1.84,5.49-1.84,5.49a2.94,2.94,0,0,0,.92,3.06,32.23,32.23,0,0,0,4.68,3.45" style="fill:#c9c9c9;stroke:#263238;stroke-linecap:round;stroke-linejoin:round"></path><path d="M314.24,321.93l-.64-10.18H310l-.65,10.18a3.31,3.31,0,0,0-3.1,3.3v17.12a2.09,2.09,0,0,0,2.08,2.09h7a2.09,2.09,0,0,0,2.09-2.09V325.23A3.31,3.31,0,0,0,314.24,321.93Z" style="fill:#F1EA34;stroke:#263238;stroke-linecap:round;stroke-linejoin:round"></path><rect x="309.05" y="309.77" width="5.45" height="3.47" style="fill:#F1EA34;stroke:#263238;stroke-linecap:round;stroke-linejoin:round"></rect><path d="M341.72,303.09,348,330.16s-7.59,5-13.2,6.94a18.74,18.74,0,0,1-11.23,0s-4-4.62-6.6-4.62-10.56,0-12.54,1-1.32,4.62,0,4.95S305.74,347,310,348s12.87-1.32,14.19-1.32,17.17-1.32,25.09-2.31,16.84-4,17.5-6.27-6.93-40.61-8.91-45.89-6.27-11.88-14.53-11.55" style="fill:#263238;stroke:#263238;stroke-linecap:round;stroke-linejoin:round"></path><path d="M366.81,338.09c.38-1.33-2-14.52-4.4-26.52A46.34,46.34,0,0,0,345,317l3,13.15s-7.59,5-13.2,6.94a18.74,18.74,0,0,1-11.23,0s-4-4.62-6.6-4.62-10.56,0-12.54,1-1.32,4.62,0,4.95S305.74,347,310,348s12.87-1.32,14.19-1.32,17.17-1.32,25.09-2.31S366.15,340.4,366.81,338.09Z" style="fill:#c9c9c9;stroke:#263238;stroke-linecap:round;stroke-linejoin:round"></path><path d="M302,222.69s-5.8,4.58-6.72,10.39-.31,16.19,1.83,21.69,3.36,14.67,10.09,15.89a16,16,0,0,0,14.66-5.2c2.14-2.75,4.58-10.38,4.58-10.38a5.57,5.57,0,0,0,4-4c.91-3.36,1.22-4.27.61-5.8a11.14,11.14,0,0,0-2.14-3.06s.91-11.61-3.06-15.88S310.55,217.8,302,222.69Z" style="fill:#c9c9c9;stroke:#263238;stroke-linecap:round;stroke-linejoin:round"></path><path d="M302,222.69a23.25,23.25,0,0,0-2.75,2.72,31.35,31.35,0,0,0,12.22,2.47,69.28,69.28,0,0,0,14.36-1.52C321.85,222.08,310.55,217.8,302,222.69Z" style="fill:#263238;stroke:#263238;stroke-linecap:round;stroke-linejoin:round"></path><path d="M295.27,238.88s2.44-7.33,2.44-9.77c0-.67,0-1.28.06-1.83a14.37,14.37,0,0,0-2.5,5.8,38.27,38.27,0,0,0-.4,4.93Z" style="fill:#263238;stroke:#263238;stroke-linecap:round;stroke-linejoin:round"></path><path d="M325.82,226.36A56.78,56.78,0,0,0,324.6,234c0,2.14,1.83,5.81,1.83,5.81l-.3,7.33s1.53.92,1.53-1.53-.31-3,1.22-3.36C328.88,242.24,329.79,230.63,325.82,226.36Z" style="fill:#263238;stroke:#263238;stroke-linecap:round;stroke-linejoin:round"></path><path d="M304.74,246.22s-3.05-3.06-6.11-.92" style="fill:none;stroke:#263238;stroke-linecap:round;stroke-linejoin:round"></path><path d="M311.46,246.52s4.28-3.05,6.72,0" style="fill:none;stroke:#263238;stroke-linecap:round;stroke-linejoin:round"></path><path d="M304.74,240.1s-4.89-1.22-6.72,2.14" style="fill:none;stroke:#263238;stroke-linecap:round;stroke-linejoin:round;stroke-width:2px"></path><path d="M312.38,240.1s4.58-1.22,6.72,2.14" style="fill:none;stroke:#263238;stroke-linecap:round;stroke-linejoin:round;stroke-width:2px"></path><path d="M304.74,252.33s-.61,2.13,1.53,2.13,3.36.31,4-1.22" style="fill:none;stroke:#263238;stroke-linecap:round;stroke-linejoin:round"></path><path d="M302,257.21s4.58,4.59,12.22-.3" style="fill:none;stroke:#263238;stroke-linecap:round;stroke-linejoin:round"></path><path d="M295,365.57s-8.68-10.6-20.37-16.9-23.71-8-33.06-6-9.69,10.94-9,14.92,12.69,37.13,15,43.09,7.68,30.2,8.35,33.51-4.34,11.94-5,15.91-4.68,5.64-7.68,7.3,1,4,4.34,4,12.69,0,15-1,4.76-7.74,9-10.28c6.68-4,6.35-9.94,5-12.59-2.09-4.15-5.34-7.63-6.34-10.94s-4-24.89-4-29.53v-17.9s7,6.29,12,8.28,19.71,3,22.05,2.65,25.71,0,25.71,0,18.27,5,18-22.38c-.09-9.94-12.86-30.87-23.62-18.1-4.29,5.08-11.78,17.61-15.12,26.89" style="fill:#fff;stroke:#263238;stroke-linecap:round;stroke-linejoin:round"></path><path d="M275.92,436.51c-1,4.58-2.85,10.32-6.44,12.11-5.1,2.56-3.83,9.89-14.35,11.17-7.28.88-10.13-1.14-11.2-2.46l-.69.37c-3,1.66,1,4,4.34,4s12.69,0,15-1,4.76-7.75,9-10.28c6.68-4,6.35-10,5-12.6C276.41,437.37,276.17,436.94,275.92,436.51Z" style="fill:#fff;stroke:#263238;stroke-linecap:round;stroke-linejoin:round"></path><path d="M266.28,379.17s.72.64,1.85,1.58c1.62-23.34-5.22-33.7-9.87-38a42.62,42.62,0,0,0-16.69-.08c-9.36,2-9.69,10.94-9,14.92s12.69,37.13,15,43.09,7.68,30.2,8.35,33.51c0,.14,0,.29,0,.44a8.56,8.56,0,0,1,2.3.22c2.33.67,6,3,8.68,1s3.34-9.28,3.34-9.28c-1-3.32-4-24.89-4-29.53Z" style="fill:#c9c9c9;stroke:#263238;stroke-linecap:round;stroke-linejoin:round"></path><path d="M260.38,361.08a28.9,28.9,0,0,0-2.11-2.8" style="fill:none;stroke:#263238;stroke-linecap:round;stroke-linejoin:round"></path><path d="M266.28,379.17a38.92,38.92,0,0,0-3.62-14.05" style="fill:none;stroke:#263238;stroke-linecap:round;stroke-linejoin:round"></path><path d="M333.89,433.35s1.86,6.95,3.53,8.95,9.35,11.36,9.35,14.36-2.67,3-5,3.68c-1.88.53-15.87.21-21.27.06-1.32,0-1.39-1.47-1.77-2.74-.73-2.45.33-6.34.86-10,.9-6.28.47-8.62,1.81-11s-.86-4.34,1.81-4.34S333.89,433.35,333.89,433.35Z" style="fill:#fff;stroke:#263238;stroke-linecap:round;stroke-linejoin:round"></path><path d="M341.76,460.34c2.34-.67,5-.67,5-3.68a4,4,0,0,0-.28-1.23c-2.26,1.81-6.66,3.35-12,3.35-6.38,0-8.93-1-11.8-3.83-1.82-1.82-3.25-2-4.05-1.84a11.09,11.09,0,0,0,0,4.55c.38,1.27.45,2.7,1.77,2.74C325.89,460.55,339.88,460.87,341.76,460.34Z" style="fill:#fff;stroke:#263238;stroke-linecap:round;stroke-linejoin:round"></path><path d="M324.64,460.69a21.08,21.08,0,0,1,.64-9.57" style="fill:none;stroke:#263238;stroke-linecap:round;stroke-linejoin:round"></path><path d="M330,342.56s-9.27.69-11.59,5.56-3.23,9.32-1.66,24.24c1.53,14.49,3.14,49.89,6.1,63.9.66,3.13,8.61,2.79,10.27.7s7.4-37.71,8.07-52.67.7-26.42-2.28-32.33S333.94,343.25,330,342.56Z" style="fill:#c9c9c9;stroke:#263238;stroke-linecap:round;stroke-linejoin:round"></path></g><g id="freepik--character-4--inject-129"><path d="M393.31,247s-1.88,6.33-3.61,8.72c-1.29,1.77-3.91,2.7-3.91,4.81s3.61,3.61,3.61,3.61,3,9.31,3.61,11.42,4.81,2.4,6,2.1,9.32-3.91,9.32-3.91l1.2-24.34Z" style="fill:#fff;stroke:#263238;stroke-linecap:round;stroke-linejoin:round"></path><ellipse cx="395.7" cy="255.04" rx="0.94" ry="1.66" style="fill:#263238"></ellipse><path d="M394.14,250.05a3.45,3.45,0,0,1,3.95,2.29" style="fill:#fff;stroke:#263238;stroke-linecap:round;stroke-linejoin:round"></path><path d="M392.27,266.47s3.94.21,6-2.08" style="fill:#fff;stroke:#263238;stroke-linecap:round;stroke-linejoin:round"></path><path d="M345.92,353.83s-6.76.67-7.44,6.42,10.15,22,18.26,34.15,23,30.77,24.35,34.15,2,13.53-1,16.91-5.74,5.07-3.38,5.75,12.85-.68,12.85-.68,5.07-8.79,6.77-11.83,6.08-11.16,6.08-12.51-4.06-6.77-5.75-7.44-8.79-3-8.79-3S371.28,389,370.27,386.29a98.27,98.27,0,0,0-4.74-9.13s27.39,12.51,44,13.86,21.31.34,21.31.34,0-3.38-2-4.06-14.54-6.42-17.92-7.44S383.46,367,380.75,366s-28.4-12.51-28.4-12.51Z" style="fill:#263238;stroke:#263238;stroke-linecap:round;stroke-linejoin:round"></path><path d="M404.71,300.83s-3,13.87-2.23,18.08.74,13.12.74,18.82-1.48,11.38-1.23,13.37,7.18,4,12.87,4,26.49.24,29.46-1.49,2.73-7.92,2.23-11.14-1-32.44-1.48-37.64-1-11.38-2.73-16.09-10.89-9.41-20-6.68S404.71,300.83,404.71,300.83Z" style="fill:#fff;stroke:#263238;stroke-linecap:round;stroke-linejoin:round"></path><path d="M406,249.22s.42,20.58-1.66,29.72-4.78,15.59-3.53,21.41,8.73,9.77,11.43,8.32,3.33-11.44,11.64-17.46,15.38-2.29,17.46,1.87a50.41,50.41,0,0,1,3.33,10.6A17.92,17.92,0,0,0,448.8,292c-.2-6.86-4.36-16.63-8.73-22.87a84.59,84.59,0,0,1-7.69-14.55Z" style="fill:#263238;stroke:#263238;stroke-linecap:round;stroke-linejoin:round"></path><path d="M403.53,227.8l-9.92,14.13-16.54-4.51a46.36,46.36,0,0,0,15,10.22c9.32,3.91,20.74,4.81,30.36,4.81s26.16,3.31,26.16,3.31-6.92-3.61-8.72-4.51a26.54,26.54,0,0,0-3.91-1.5s-2.1-15.63-2.1-17.14S409.54,226,407.13,226A4.5,4.5,0,0,0,403.53,227.8Z" style="fill:#fff;stroke:#263238;stroke-linecap:round;stroke-linejoin:round"></path><path d="M406.53,251.25s17.44,5.41,27.66,6.31,17.73-1.2,14.43-1.8S416.45,250.05,406.53,251.25Z" style="fill:#fff;stroke:#263238;stroke-linecap:round;stroke-linejoin:round"></path><path d="M393.61,241.93s1.5,2.11,16.23,5.71A78.29,78.29,0,0,0,436,249.75l-.6-6.32-37.27-7.51Z" style="fill:#263238;stroke:#263238;stroke-linecap:round;stroke-linejoin:round"></path><path d="M444.66,350.78s6.09,12.51,5.41,24.69S437.56,392,431.13,392.71,402.05,388,396,384.26s-22.66-12.18-22.66-12.18,8.6,3.51,12,36.05c.34,3.31,5,19.58,8.1,21,6.58,3,7.24,5.29,5.55,9.35s-9.13,18.93-11.5,21.3-13.87,2-15.22,1.69l-1.35-.34s2-2.7,4.06-5.07,3.72-7.78,3.72-10.82.49-8.11-.52-12.51S351,376.14,347.61,369.38s-5-16.85-3-18.26c5.75-4.06,36.86-2,48.69-.34s14.54,2.37,14.54,2.37l33.48.68Z" style="fill:#fff;stroke:#263238;stroke-linecap:round;stroke-linejoin:round"></path><path d="M373.31,372.08s-5.08-4.2-6.73-5.19" style="fill:#fff;stroke:#263238;stroke-linecap:round;stroke-linejoin:round"></path><path d="M450.07,375.47c.68-12.18-5.41-24.69-5.41-24.69l-3.38,3.05-33.48-.68s-1.45-.36-6.81-1.21c3.27,7.54,7.34,21.91-1.76,33.88,8.6,3.5,26.34,7.48,31.9,6.89C437.56,392,449.39,387.64,450.07,375.47Z" style="fill:#F1EA34;stroke:#263238;stroke-linecap:round;stroke-linejoin:round"></path><path d="M416.36,365.74c3.91,1.21,8.8,2.7,12.17,3.6,6.47,1.72,9.49-.44,9.49-1.73s3.88,1.29,3.88-3.45a25.55,25.55,0,0,0-.86-7.34" style="fill:none;stroke:#263238;stroke-linecap:round;stroke-linejoin:round"></path><path d="M435,360.71s6,7.76,7.77,14.66" style="fill:none;stroke:#263238;stroke-linecap:round;stroke-linejoin:round"></path><path d="M410,363.73l2.6.82" style="fill:none;stroke:#263238;stroke-linecap:round;stroke-linejoin:round"></path><path d="M401,351.94c3.27,7.54,7.34,21.91-1.76,33.88,1.3.53,2.82,1.07,4.46,1.61,2-2.75,4.82-8.24,5.47-17.71.57-8.46-.82-13.75-2.13-16.74C406.13,352.8,404.31,352.46,401,351.94Z" style="fill:#fff;stroke:#263238;stroke-linecap:round;stroke-linejoin:round"></path><path d="M397.24,431.35a30.69,30.69,0,0,0-3.85-2.25,25.82,25.82,0,0,1-2.23,13.4,52.09,52.09,0,0,1-4.06,7.55,27.16,27.16,0,0,0-8.62-2.93,21.35,21.35,0,0,1-.46,2.15,56.42,56.42,0,0,1,7.85,2.53c-1.9,2.51-3.44,3.71-4.18,3.89s-3.53-.49-5.76-1.12a10.3,10.3,0,0,1-1,1.46c-2,2.37-4.06,5.07-4.06,5.07l1.35.34c1.35.34,12.85.68,15.22-1.69a32.53,32.53,0,0,0,3.51-5.42h0c.23-.4.46-.82.69-1.24h0c2.91-5.3,6.23-12.09,7.29-14.63C400.63,434.39,400,433.37,397.24,431.35Z" style="fill:#263238;stroke:#263238;stroke-linecap:round;stroke-linejoin:round"></path><path d="M440.8,460.78h13.84l-6.21-66.91a4,4,0,0,0-3.93-3.53H407.62a4,4,0,0,0-3.92,3.53l-6.21,66.91h13.83l2-24.45h25.56Zm-27.31-27.49,1.65-24.69H437l1.65,24.69Z" style="fill:#263238;stroke:#263238;stroke-linecap:round;stroke-linejoin:round"></path><path d="M373,327.59l-.65-10.17h-3.64l-.65,10.17a3.31,3.31,0,0,0-3.1,3.3V348a2.08,2.08,0,0,0,2.08,2.08h7a2.08,2.08,0,0,0,2.08-2.08V330.89A3.31,3.31,0,0,0,373,327.59Z" style="fill:#F1EA34;stroke:#263238;stroke-linecap:round;stroke-linejoin:round"></path><rect x="367.85" y="315.44" width="5.45" height="3.47" style="fill:#F1EA34;stroke:#263238;stroke-linecap:round;stroke-linejoin:round"></rect><path d="M428,336l-1.48,8.42s-21.05,2.72-25.75,2.48-13.87-1.24-13.87-1.24-8.17-6.69-8.42-7.68-2.23-1-2.23-1l0,3.23a6.75,6.75,0,0,1-3.44,1c-2,0-4-.14-5.72-.14s-3-.25-2.72,1,.74,3.21,1.24,5.2a5.74,5.74,0,0,0,2.25,3.11s30.95,2.48,37.63,3,30.21,4,32.44,3.47H438a6,6,0,0,0,4.66-5.51l1-15.28Z" style="fill:#fff;stroke:#263238;stroke-linecap:round;stroke-linejoin:round"></path><path d="M425,293.9a23.85,23.85,0,0,0-2.47,13.37c.74,7.92-.75,24.76-.5,27.24s6.93,3.22,6.93,3.22H441.6s4-1.49,4.71-3.72-3-22.53-4-28.23-1.23-14.11-9.16-16.09" style="fill:#fff;stroke:#263238;stroke-linecap:round;stroke-linejoin:round"></path></g><g id="freepik--character-2--inject-129"><path d="M169,460.37h13.83l-6.21-66.91a3.94,3.94,0,0,0-3.92-3.52H135.81a3.94,3.94,0,0,0-3.92,3.52l-6.21,66.91h13.83l2-24.45H167Zm-27.31-27.49,1.65-24.68h21.85l1.65,24.68Z" style="fill:#263238;stroke:#263238;stroke-linecap:round;stroke-linejoin:round"></path><path d="M198.54,265.51s8.92,1,10.57,7.6,0,26.74,0,35.65.66,23.11,0,31.36-.66,34,0,35-6,1.32-6,1.32-4.95-23.44-5.94-33.68-.66-32-.66-32V265.18Z" style="fill:#fff;stroke:#263238;stroke-linecap:round;stroke-linejoin:round"></path><path d="M203.16,376.44s6.61-.33,6-1.32-.66-26.74,0-35,0-22.45,0-31.36c0-2.68.15-6.39.31-10.43l-12.86.45v12s-.33,21.79.66,32S203.16,376.44,203.16,376.44Z" style="fill:#fff;stroke:#263238;stroke-linecap:round;stroke-linejoin:round"></path><path d="M201.84,284c0,4.95-2,17.83-2.64,22.12S182,344.3,182,344.3l-41.56,4.08s1-30.38,1.32-41.27,3.63-27.4,6.93-31.69,25.58-5.4,25.58-5.4,19.32-5.83,22.29-4.84,4.62,1.65,5.61,3.63" style="fill:#fff;stroke:#263238;stroke-linecap:round;stroke-linejoin:round"></path><path d="M174.36,269.23s-5,1.48-4.7,4.45S180.8,294,186,298.44s4.7-21,4.7-21S186.49,268,174.36,269.23Z" style="fill:#fff;stroke:#263238;stroke-linecap:round;stroke-linejoin:round"></path><path d="M186.66,278.72,185,286.31l5.61-7.59A12.9,12.9,0,0,0,186.66,278.72Z" style="fill:#263238;stroke:#263238;stroke-linecap:round;stroke-linejoin:round"></path><path d="M151.23,390.39h16.29s5.71,1.63,12.77-8.15,13.31-34.76,13.31-34.76-16.57,8.15-24.45,17.93S151.23,390.39,151.23,390.39Z" style="fill:#263238;stroke:#263238;stroke-linecap:round;stroke-linejoin:round"></path><path d="M138.13,337.15a14.54,14.54,0,0,0-1.58.59A26.58,26.58,0,0,0,123.27,351c-5.28,11.22.64,32.15,9.22,36.11s23.95,4,28.25-.27,22.62-24.95,22.62-24.95l15.51-16.84s.33-10.23-5-13.2-29.71,1.32-40.94,3.3S138.13,337.15,138.13,337.15Z" style="fill:#263238;stroke:#263238;stroke-linecap:round;stroke-linejoin:round"></path><path d="M138.21,389.22s9,2,14.87.44c10.68-2.84,15-8.34,15-8.34" style="fill:none;stroke:#737373;stroke-linecap:round;stroke-linejoin:round"></path><path d="M193.67,230.35s-9.16-9.4-18.81-9.65-24.27,16.34-24.27,24,5.2,11.15,4.71,13.87-1.24,4.95-3.47,4.95h-3.22s6.19,9.41,14.11,11.14,12.14,0,13.13-1.48a89.19,89.19,0,0,0,5.94-11.39c1.73-4.21,6.68-12.38,9.16-12.88s5,1,5,4.71,1.49,6.93,5.7,6.44,8.41-11.89,6.93-20.8S199.62,223.92,193.67,230.35Z" style="fill:#263238;stroke:#263238;stroke-linecap:round;stroke-linejoin:round"></path><path d="M196.47,242.69s2.74,5.81,2.74,8.54a61.16,61.16,0,0,1-.69,7.18s2.74,3.07,2.74,4.44-3.76,3.41-3.76,3.41a14.73,14.73,0,0,1-3.07,10.25c-3.76,4.44-9.23,2.05-12.3.34s-7.86-6.83-7.86-6.83a12.13,12.13,0,0,1,.69-7.52c1.7-4.09,5.8-9.22,11.61-13S195.11,245.43,196.47,242.69Z" style="fill:#fff;stroke:#263238;stroke-linecap:round;stroke-linejoin:round"></path><path d="M193.27,258c0,.88-.42,1.59-.94,1.59s-1-.71-1-1.59.42-1.58,1-1.58S193.27,257.08,193.27,258Z" style="fill:#263238"></path><path d="M189.51,255.65s1.58-2.59,5.61-2.16" style="fill:none;stroke:#263238;stroke-linecap:round;stroke-linejoin:round"></path><path d="M188.65,267.74a9.23,9.23,0,0,0,6.33,2" style="fill:none;stroke:#263238;stroke-linecap:round;stroke-linejoin:round"></path><path d="M181.27,345.09A23.68,23.68,0,0,0,172,359.84c-1.61,9.69-2.08,38-3.46,50.2s-5.84,25.69-9.29,30.07S144.07,453,144.76,456.48s5.3,5.77,11.3,5.08,13.14-6.23,15-14.76,12.11-30.34,15.34-40.95,7.11-24.56,8-36.78S195.56,342.32,181.27,345.09Z" style="fill:#fff;stroke:#263238;stroke-linecap:round;stroke-linejoin:round"></path><path d="M181.27,345.09A23.68,23.68,0,0,0,172,359.84c-1.61,9.69-2.08,38-3.46,50.2-.16,1.44-.37,2.89-.61,4.35a30.68,30.68,0,0,0,14.29,2.71c1.7-4.28,3.2-8.22,4.12-11.25,3.23-10.6,7.11-24.56,8-36.78S195.56,342.32,181.27,345.09Z" style="fill:#263238;stroke:#263238;stroke-linecap:round;stroke-linejoin:round"></path><path d="M176,348.37A145.53,145.53,0,0,0,170.48,369c-1.72,10-1.58,27.22-1.58,27.22" style="fill:none;stroke:#737373;stroke-linecap:round;stroke-linejoin:round"></path><path d="M171,442.88s-.23-3-4.15-5.53-6.91,1.84-6.91,1.84h0c-.23.32-.45.63-.68.92-3.46,4.38-15.22,12.92-14.53,16.37s5.3,5.77,11.3,5.08,13.14-6.23,15-14.76c.29-1.3.72-2.92,1.27-4.77Z" style="fill:#F1EA34;stroke:#263238;stroke-linecap:round;stroke-linejoin:round"></path><path d="M180.72,341.44a55.55,55.55,0,0,0,5.61,26.41c6.6,12.88,25.43,48.24,25.43,48.24V429c0,2.32,7.27,7.27,11.56,9.91s13.86,6.27,16.5,5.61,5-3,3.64-6.27-15.19-18.82-16.84-22.12-7.88-16.88-9.53-23.15-9.63-39.28-12.28-47.54-5.28-13.86-8.91-14.85-12.54,1.65-14.85,3" style="fill:#263238;stroke:#263238;stroke-linecap:round;stroke-linejoin:round"></path><path d="M183.87,340.47s-3.48,18.76,8.62,40.22" style="fill:none;stroke:#737373;stroke-linecap:round;stroke-linejoin:round"></path><path d="M226.62,416.09c-1.65-3.3-7.88-16.88-9.53-23.15,0-.14-.08-.31-.12-.48a34.35,34.35,0,0,1-15.59,4.08c5.6,10.56,10.38,19.55,10.38,19.55V429c0,2.32,7.27,7.27,11.56,9.91s13.86,6.27,16.5,5.61,5-3,3.64-6.27S228.27,419.39,226.62,416.09Z" style="fill:#fff;stroke:#263238;stroke-linecap:round;stroke-linejoin:round"></path><path d="M226.62,416.09c-.16-.32-.38-.79-.64-1.39-5.36,2.25-6.29,8.65-6.29,8.65l-7.93-7.26V429c0,2.32,7.27,7.27,11.56,9.91s13.86,6.27,16.5,5.61,5-3,3.64-6.27S228.27,419.39,226.62,416.09Z" style="fill:#F1EA34;stroke:#263238;stroke-linecap:round;stroke-linejoin:round"></path><path d="M230.25,439.2a73.29,73.29,0,0,1-18.49-11.82V429c0,2.32,7.27,7.27,11.56,9.91s13.86,6.27,16.5,5.61c2.47-.62,4.64-2.67,3.85-5.62C242.15,441.06,238.71,442.72,230.25,439.2Z" style="fill:#fff;stroke:#263238;stroke-linecap:round;stroke-linejoin:round"></path><path d="M156.29,272.78s-10.57-1-15.19,5-6.6,17.16-6.6,24.1-1.65,36.64-.66,38.62,61.73-7.59,63-7.92,8.26,13.2,8.92,14.2,1,5.61,1,7.26,5.28-2.31,5.28-2.31a98.43,98.43,0,0,0-1-10.9c-1.59-7.12-5.49-10.4-11.89-13.2L153.64,324l3-30.05" style="fill:#fff;stroke:#263238;stroke-linecap:round;stroke-linejoin:round"></path><path d="M199.2,327.58,153.64,324l.9-16-20.18-1.24c-.38,8.67-1.33,32.12-.52,33.74,1,2,61.73-7.59,63-7.92s8.26,13.2,8.92,14.2,1,5.61,1,7.26,5.28-2.31,5.28-2.31a98.43,98.43,0,0,0-1-10.9C209.5,333.66,205.6,330.38,199.2,327.58Z" style="fill:#fff;stroke:#263238;stroke-linecap:round;stroke-linejoin:round"></path><path d="M151.77,459.22c-3.89-1.73-5-4.41-5.26-6.46-1.21,1.49-1.94,2.79-1.75,3.72.69,3.46,5.3,5.77,11.3,5.08,4.2-.49,9-3.36,12.07-8C162.87,458,156.45,461.3,151.77,459.22Z" style="fill:#fff;stroke:#263238;stroke-linecap:round;stroke-linejoin:round"></path></g><g id="freepik--character-1--inject-129"><path d="M134.84,184.9,134.08,173h-4.24l-.75,11.87a3.85,3.85,0,0,0-3.62,3.84v20a2.43,2.43,0,0,0,2.43,2.43H136a2.43,2.43,0,0,0,2.43-2.43v-20A3.85,3.85,0,0,0,134.84,184.9Z" style="fill:#F1EA34;stroke:#263238;stroke-linecap:round;stroke-linejoin:round"></path><rect x="128.79" y="170.72" width="6.35" height="4.04" style="fill:#F1EA34;stroke:#263238;stroke-linecap:round;stroke-linejoin:round"></rect><path d="M67.56,351.71s1.53,12.51-1.83,18.92-9.46,21.06-9.76,33-.62,43-.62,46.38-2.44,8.85,0,10.07,23.81.91,23.81.91,11.59,1.22,11-2.44-18.31-10.07-19.53-12.2.4-5.17.7-7.61-.09-17.72,3.27-29.93,9.76-19.52,10.68-33.26,1.83-20.74,1.83-20.74Z" style="fill:#263238;stroke:#263238;stroke-linecap:round;stroke-linejoin:round"></path><path d="M70.61,446.31c-.15-.27-.3-.57-.44-.88l-1.08,2.71-.31,2.13s-7.46.44-13.45.2c-.2,3.38-2.3,8.4,0,9.57s23.81.91,23.81.91,11.59,1.22,11-2.44S71.83,448.44,70.61,446.31Z" style="fill:#263238;stroke:#263238;stroke-linecap:round;stroke-linejoin:round"></path><path d="M86.17,459.12c-10.21,0-26.33-1-31.89-1.39A2.37,2.37,0,0,0,55.35,460c2.45,1.22,23.81.91,23.81.91s10.17,1.07,11-1.8Z" style="fill:#263238;stroke:#263238;stroke-linecap:round;stroke-linejoin:round"></path><path d="M73.36,353.05s.3,11.29.3,13.73-7.32,13.73-7.32,24.72,4.27,45.57,5.19,50.45S70,457.82,70,457.82s-.91,2.74,4.58,3.35,31.12.61,33,.31,3.36-4.27.92-6.1-20.14-6.72-21.36-10.07,2.13-56.26,5.49-65.1S96.85,365,97.77,357,73.36,353.05,73.36,353.05Z" style="fill:#fff;stroke:#263238;stroke-linecap:round;stroke-linejoin:round"></path><path d="M108.45,455.38c-2.32-1.74-18.35-6.22-21-9.54a7.5,7.5,0,0,0-.32,2.21v4.58s-8.37-.95-15.9-1.48c-.51,3.61-1.19,6.67-1.19,6.67s-.91,2.74,4.58,3.35,31.12.61,33,.31S110.89,457.21,108.45,455.38Z" style="fill:#fff;stroke:#263238;stroke-linecap:round;stroke-linejoin:round"></path><path d="M107.53,461.48a3,3,0,0,0,2-2.1A264.05,264.05,0,0,1,70,458c-.09.61,0,2.67,4.62,3.18C80.07,461.78,105.7,461.78,107.53,461.48Z" style="fill:#fff;stroke:#263238;stroke-linecap:round;stroke-linejoin:round"></path><path d="M110.16,240.32s9.14,20.58,11.43,24a28.55,28.55,0,0,1,4,14c0,4.58.57,9.72-2,11.72a16.22,16.22,0,0,1-8.62,2.88c-1.31,0-2-1-2.87-1.67A3,3,0,0,1,111,290c-.23-.59,2.35-1.63,3.72-2.54,2.57-1.72,2.29-6.58,2.29-6.58s-3.15-3.43-3.72-6.85a23.79,23.79,0,0,1,0-6.86l-8-9.72Z" style="fill:#fff;stroke:#263238;stroke-linecap:round;stroke-linejoin:round"></path><path d="M115,292.93s-2-.59-.23-1.4c1-.49,3.26-1,4.07-1.75a6.67,6.67,0,0,0,2.33-3.95c.12-1.63.12-2.57.12-2.57" style="fill:none;stroke:#263238;stroke-linecap:round;stroke-linejoin:round"></path><path d="M113.11,291.65s-.93-1.17.12-1.75,3.6-1,4.3-1.63,1.75-3.73,1.87-4.89" style="fill:none;stroke:#263238;stroke-linecap:round;stroke-linejoin:round"></path><path d="M111,290s1.17-1.4,1.87-1.52a19.64,19.64,0,0,0,2.91-1.28c.81-.35,1.63-1.86,2-4.3" style="fill:none;stroke:#263238;stroke-linecap:round;stroke-linejoin:round"></path><path d="M118.16,269.47s-2,5.15-.28,7.72,2.85,4,3.14,5.43-1.14,7.14,1.14,7.43,1.43-3.72,1.72-8.86,1.71-7.14-.29-12" style="fill:#fff;stroke:#263238;stroke-linecap:round;stroke-linejoin:round"></path><path d="M59.12,260.3s-1.79,10.77-.51,17.43a50.39,50.39,0,0,0,4.87,13.08s-4.36,43.58-4.36,49.48-.26,10.26-.26,10.26,9.23,7.69,25.13,7.94,28.2-.51,28.2-.51l-2.56-67.43,1.79-24.1s-26.66.77-34.87-1A164.79,164.79,0,0,1,59.12,260.3Z" style="fill:#F1EA34;stroke:#263238;stroke-linecap:round;stroke-linejoin:round"></path><path d="M80.66,268.25s-1,12.56-.52,19-.25,24.36-.25,26.15v2.56" style="fill:none;stroke:#263238;stroke-linecap:round;stroke-linejoin:round"></path><path d="M91.68,271.07s.77,11.28-10.25,15.89" style="fill:none;stroke:#263238;stroke-linecap:round;stroke-linejoin:round"></path><path d="M66.56,320.55s-1.8,17.69-2.31,20.77,7.69,6.92,18.2,8.71,18.2,0,19.74-2.56-.77-24.1-.77-24.1S80.14,323.88,66.56,320.55Z" style="fill:#F1EA34;stroke:#263238;stroke-linecap:round;stroke-linejoin:round"></path><path d="M66.3,313.37A58.21,58.21,0,0,0,84,317.47a168.81,168.81,0,0,0,19.48.26v9.74a119.14,119.14,0,0,1-17.69,1,52.22,52.22,0,0,1-20.25-4.11Z" style="fill:#F1EA34;stroke:#263238;stroke-linecap:round;stroke-linejoin:round"></path><path d="M59.63,346.7s10,5.9,26.41,7.43,23.84-.25,23.84-.25" style="fill:none;stroke:#263238;stroke-linecap:round;stroke-linejoin:round"></path><path d="M94.94,168.78s9,9.95,12.61,17.46a50.43,50.43,0,0,1,5.09,25.47c-.48,9.94-1.45,40.74-1,43.89s.24,13.58.24,13.58-2.66.73-18.91,1.46-34.68-7.52-34.68-7.52-.24-8.25.49-11.88,1-19.16,1-19.16-3.16-34.92-3.16-48.26,15-23.28,15-23.28Z" style="fill:#fff;stroke:#263238;stroke-linecap:round;stroke-linejoin:round"></path><path d="M103.67,148.9s-4.85,4.36-5.58,7.76-1.21,14.55-1.21,14.55l-24.49-17,.72-6.79s-4.6-11.15,1.94-15.52,18-3.88,22.31,3.15A61.37,61.37,0,0,1,103.67,148.9Z" style="fill:#fff;stroke:#263238;stroke-linecap:round;stroke-linejoin:round"></path><path d="M96.6,102.37s2.77.85,5.12,5.34,4.7,11.31,5.76,12.6,5.77,3,5.77,4.48-3.63,5.55-3.63,5.55,0,9,1.49,10.89,1.93,6.83-1.7,8.54-6.2,1.28-12.17-1.07-11.11-3-11.11-7.9-3.41-12.17-3.63-13.88,1.07-9.18,4.7-15.8S94.46,101.73,96.6,102.37Z" style="fill:#fff;stroke:#263238;stroke-linecap:round;stroke-linejoin:round"></path><path d="M109.41,149.77c3.63-1.71,3.2-6.62,1.7-8.54-2.34,2.56-2.34,4.91-8.54,4.06S90,142.51,89.12,140.16s-4.91-17.08-4.91-17.08L83,122.83a16.11,16.11,0,0,0-.46,4.09c.22,1.71,3.63,9,3.63,13.88s5.13,5.55,11.11,7.9S105.78,151.48,109.41,149.77Z" style="fill:#263238;stroke:#263238;stroke-linecap:round;stroke-linejoin:round"></path><path d="M98.09,123.08a4.7,4.7,0,0,1,4.48-2.13" style="fill:none;stroke:#263238;stroke-linecap:round;stroke-linejoin:round"></path><path d="M101.51,114.75s-3.42-2.56-5.77,1.71" style="fill:none;stroke:#263238;stroke-linecap:round;stroke-linejoin:round"></path><path d="M108.34,133.76s-3,1.92-6.62-1.07" style="fill:none;stroke:#263238;stroke-linecap:round;stroke-linejoin:round"></path><path d="M97.24,103.44s2.13-.64,1.28-5.34-16.23-8.33-31.18-3.84-18.36,16-17.08,27.11S65.21,144,67.34,144.86c0,0-.21,4.48-1.49,4.7a14.25,14.25,0,0,0-1.92.42s0,.64,4.91,1.92,7-.64,7-.64v2.35s2.78.86,5.56-1.92,1.28-11.1.64-12.81-2.14-5.34-2.78-7.47,5.77-1.71,6.62-5.77-.43-3.41,2.35-6,4.27-5.33,4-9S97.24,103.44,97.24,103.44Z" style="fill:#263238;stroke:#263238;stroke-linecap:round;stroke-linejoin:round"></path><path d="M57.35,136.53a9.67,9.67,0,0,0-5.58,2.18c-2.67,2.18-2.18,7.28.49,9.7s4.36,3.16,3.88,4.13,1.21,2.91,3.64.48,3.88-8,1.45-10.67-2.18-4.85-2.18-4.85Z" style="fill:#263238;stroke:#263238;stroke-linecap:round;stroke-linejoin:round"></path><path d="M76.75,130.47s-2.42,7-13.82,7" style="fill:none;stroke:#737373;stroke-linecap:round;stroke-linejoin:round"></path><path d="M64.14,139.68s4.85,2.18,12.13-1.94" style="fill:none;stroke:#737373;stroke-linecap:round;stroke-linejoin:round"></path><path d="M84.21,130.77s-1.07-4.06-4.48-4.06-3,6.83-.43,11.32,7-.43,7-1.07" style="fill:#fff;stroke:#263238;stroke-linecap:round;stroke-linejoin:round"></path><path d="M72.39,151.57s24,15,25.46,16.24-1.94,11.4-1.94,11.4L69,162S70.45,153.26,72.39,151.57Z" style="fill:#fff;stroke:#263238;stroke-linecap:round;stroke-linejoin:round"></path><path d="M65.6,171.94s-4.85,4.6-5.82,15.52,11.64,59.65,13.58,60.87a10,10,0,0,0,4.6,1.21l42-33.38s13.57-3.92,16.4-5.1,4.7-5.46,4.42-9.33,1.15-7.38-1-7.22-5.32.4-7.73.82-7.67-.52-7.67-.52-3.93,1.38-4.2,4.32a76.15,76.15,0,0,1-2,9.14L87.42,223.59,85,183.09" style="fill:#fff;stroke:#263238;stroke-linecap:round;stroke-linejoin:round"></path><path d="M140.76,201.73c-.29-3.87,1.15-7.38-1-7.22s-5.32.4-7.73.82-7.67-.52-7.67-.52-3.93,1.38-4.2,4.32a76.15,76.15,0,0,1-2,9.14L87.42,223.59l-.64-10.68-21.47,7.93c3.32,14,7.06,26.87,8,27.49a10,10,0,0,0,4.6,1.21l42-33.38s13.57-3.92,16.4-5.1S141,205.6,140.76,201.73Z" style="fill:#fff;stroke:#263238;stroke-linecap:round;stroke-linejoin:round"></path></g><g id="freepik--Floor--inject-129"><line x1="22.91" y1="461.68" x2="480.47" y2="461.68" style="fill:none;stroke:#263238;stroke-linecap:round;stroke-linejoin:round"></line></g></svg>